<svg width="61" height="61" viewBox="0 0 61 61" fill="none" xmlns="http://www.w3.org/2000/svg">
<g clip-path="url(#clip0)">
<g opacity="0.87">
<path d="M11.2683 49.7451C15.7701 54.2479 20.7843 58.7772 28.1664 60.3825C30.0626 60.7926 31.9969 61.0011 33.937 61.0047C39.4808 61.1565 44.8574 59.0976 48.882 55.2819C50.133 54.0342 50.8361 52.34 50.8361 50.5732C50.8361 48.8064 50.133 47.1121 48.882 45.8645L43.5211 40.4955C40.9189 37.9008 36.7079 37.9008 34.1057 40.4955L30.3796 44.2195C29.9248 44.6837 29.203 44.7556 28.6655 44.3903C26.3582 42.7201 24.1782 40.8806 22.1436 38.8871C20.1423 36.846 18.296 34.6585 16.6201 32.3428C16.2572 31.809 16.3283 31.0921 16.7888 30.6399L20.518 26.9108C21.7684 25.6632 22.4711 23.9694 22.4711 22.2031C22.4711 20.4368 21.7684 18.743 20.518 17.4954L15.1449 12.1213C12.5453 9.52433 8.33323 9.52433 5.7336 12.1213C0.798699 17.0603 -1.1106 24.8114 0.632982 32.8512C2.23627 40.2301 6.76552 45.2464 11.2683 49.7451ZM7.17117 13.563C8.97747 11.7576 11.9051 11.7576 13.7114 13.563L19.0804 18.933C19.9494 19.7994 20.4378 20.976 20.4378 22.2031C20.4378 23.4302 19.9494 24.6068 19.0804 25.4732L15.3462 29.2074C14.1908 30.3702 14.0341 32.1935 14.9741 33.5364C16.7126 35.9391 18.6286 38.2082 20.7061 40.3247C22.8161 42.3942 25.0777 44.3034 27.472 46.0363C28.8182 46.98 30.6473 46.8223 31.8121 45.6622L35.5413 41.9331C37.3487 40.1305 40.274 40.1305 42.0815 41.9331L47.4505 47.3031C48.3189 48.1694 48.8069 49.3456 48.8069 50.5722C48.8069 51.7988 48.3189 52.975 47.4505 53.8413C43.0189 58.2709 35.9683 59.9718 28.5954 58.3929C21.7542 56.9055 16.9942 52.5979 12.7059 48.3055C8.24274 43.8413 4.10693 39.2653 2.61955 32.4201C1.0244 25.0564 2.72732 18.0068 7.17117 13.563Z" fill="#272727"/>
<path d="M11.2683 49.7451C15.7701 54.2479 20.7843 58.7772 28.1664 60.3825C30.0626 60.7926 31.9969 61.0011 33.937 61.0047C39.4808 61.1565 44.8574 59.0976 48.882 55.2819C50.133 54.0342 50.8361 52.34 50.8361 50.5732C50.8361 48.8064 50.133 47.1121 48.882 45.8645L43.5211 40.4955C40.9189 37.9008 36.7079 37.9008 34.1057 40.4955L30.3796 44.2195C29.9248 44.6837 29.203 44.7556 28.6655 44.3903C26.3582 42.7201 24.1782 40.8806 22.1436 38.8871C20.1423 36.846 18.296 34.6585 16.6201 32.3428C16.2572 31.809 16.3283 31.0921 16.7888 30.6399L20.518 26.9108C21.7684 25.6632 22.4711 23.9694 22.4711 22.2031C22.4711 20.4368 21.7684 18.743 20.518 17.4954L15.1449 12.1213C12.5453 9.52433 8.33323 9.52433 5.7336 12.1213C0.798699 17.0603 -1.1106 24.8114 0.632982 32.8512C2.23627 40.2301 6.76552 45.2464 11.2683 49.7451ZM7.17117 13.563C8.97747 11.7576 11.9051 11.7576 13.7114 13.563L19.0804 18.933C19.9494 19.7994 20.4378 20.976 20.4378 22.2031C20.4378 23.4302 19.9494 24.6068 19.0804 25.4732L15.3462 29.2074C14.1908 30.3702 14.0341 32.1935 14.9741 33.5364C16.7126 35.9391 18.6286 38.2082 20.7061 40.3247C22.8161 42.3942 25.0777 44.3034 27.472 46.0363C28.8182 46.98 30.6473 46.8223 31.8121 45.6622L35.5413 41.9331C37.3487 40.1305 40.274 40.1305 42.0815 41.9331L47.4505 47.3031C48.3189 48.1694 48.8069 49.3456 48.8069 50.5722C48.8069 51.7988 48.3189 52.975 47.4505 53.8413C43.0189 58.2709 35.9683 59.9718 28.5954 58.3929C21.7542 56.9055 16.9942 52.5979 12.7059 48.3055C8.24274 43.8413 4.10693 39.2653 2.61955 32.4201C1.0244 25.0564 2.72732 18.0068 7.17117 13.563Z" fill="url(#paint0_linear)" fill-opacity="0.52" style="mix-blend-mode:color"/>
<path d="M5.59951 32.7881C5.67193 32.7881 5.74416 32.7806 5.81504 32.7658C6.07863 32.7088 6.30877 32.5494 6.45482 32.3227C6.60087 32.096 6.65087 31.8205 6.59381 31.557C5.29451 25.5515 6.58466 19.9009 10.0505 16.4391C10.4474 16.041 10.4465 15.3965 10.0484 14.9995C9.65035 14.6026 9.00582 14.6035 8.60884 15.0016C4.65604 18.9544 3.15951 25.3034 4.60622 31.987C4.70763 32.4545 5.12118 32.788 5.59951 32.7881Z" fill="#272727"/>
<path d="M5.59951 32.7881C5.67193 32.7881 5.74416 32.7806 5.81504 32.7658C6.07863 32.7088 6.30877 32.5494 6.45482 32.3227C6.60087 32.096 6.65087 31.8205 6.59381 31.557C5.29451 25.5515 6.58466 19.9009 10.0505 16.4391C10.4474 16.041 10.4465 15.3965 10.0484 14.9995C9.65035 14.6026 9.00582 14.6035 8.60884 15.0016C4.65604 18.9544 3.15951 25.3034 4.60622 31.987C4.70763 32.4545 5.12118 32.788 5.59951 32.7881Z" fill="url(#paint1_linear)" fill-opacity="0.52" style="mix-blend-mode:color"/>
<path d="M38.6412 25.3482V28.4714C38.6412 29.5944 39.5515 30.5047 40.6745 30.5047H44.7412C45.8641 30.5047 46.7745 29.5944 46.7745 28.4714V25.3482L49.4798 26.9098C50.4523 27.4713 51.6959 27.1381 52.2574 26.1656L54.2907 22.6439C54.5602 22.1767 54.6332 21.6217 54.4934 21.1008C54.3536 20.5799 54.0127 20.1358 53.5455 19.8663L50.8412 18.3047L53.5455 16.7431C54.0127 16.4737 54.3536 16.0296 54.4934 15.5087C54.6332 14.9878 54.5602 14.4327 54.2907 13.9656L52.2574 10.4439C51.6959 9.47139 50.4523 9.13821 49.4798 9.69967L46.7745 11.2613V8.13807C46.7745 7.01509 45.8641 6.10474 44.7412 6.10474H40.6745C39.5515 6.10474 38.6412 7.01509 38.6412 8.13807V11.2613L35.9358 9.69967C34.9633 9.13821 33.7198 9.47139 33.1583 10.4439L31.1249 13.9656C30.8554 14.4327 30.7825 14.9878 30.9222 15.5087C31.062 16.0296 31.403 16.4737 31.8702 16.7431L34.5745 18.3047L31.8702 19.8663C31.403 20.1358 31.062 20.5799 30.9222 21.1008C30.7825 21.6217 30.8554 22.1767 31.1249 22.6439L33.1583 26.1656C33.7198 27.1381 34.9633 27.4713 35.9358 26.9098L38.6412 25.3482ZM32.8868 21.6272L37.1162 19.1872C37.4307 19.0056 37.6244 18.67 37.6244 18.3068C37.6244 17.9436 37.4307 17.608 37.1162 17.4263L32.8868 14.9863L34.9202 11.4646L39.1495 13.9046C39.465 14.0868 39.8538 14.0862 40.1688 13.9031C40.4838 13.72 40.6767 13.3824 40.6745 13.0181V8.13807H44.7412V13.0181C44.7412 13.3813 44.9349 13.7169 45.2495 13.8985C45.5641 14.0801 45.9516 14.0801 46.2662 13.8985L50.4955 11.4585L52.5288 14.9802L53.4093 14.4719L48.2995 17.4202C47.985 17.6019 47.7912 17.9375 47.7912 18.3007C47.7912 18.6639 47.985 18.9995 48.2995 19.1811L52.5288 21.6211L50.4955 25.1428L46.2662 22.7028C45.9503 22.5205 45.5611 22.5213 45.246 22.7049C44.9309 22.8884 44.7382 23.2267 44.7412 23.5914V28.4714H40.6745V23.5914C40.6745 23.2282 40.4807 22.8926 40.1661 22.711C39.8516 22.5294 39.464 22.5294 39.1495 22.711L34.9202 25.151L32.8868 21.6272Z" fill="#272727"/>
<path d="M38.6412 25.3482V28.4714C38.6412 29.5944 39.5515 30.5047 40.6745 30.5047H44.7412C45.8641 30.5047 46.7745 29.5944 46.7745 28.4714V25.3482L49.4798 26.9098C50.4523 27.4713 51.6959 27.1381 52.2574 26.1656L54.2907 22.6439C54.5602 22.1767 54.6332 21.6217 54.4934 21.1008C54.3536 20.5799 54.0127 20.1358 53.5455 19.8663L50.8412 18.3047L53.5455 16.7431C54.0127 16.4737 54.3536 16.0296 54.4934 15.5087C54.6332 14.9878 54.5602 14.4327 54.2907 13.9656L52.2574 10.4439C51.6959 9.47139 50.4523 9.13821 49.4798 9.69967L46.7745 11.2613V8.13807C46.7745 7.01509 45.8641 6.10474 44.7412 6.10474H40.6745C39.5515 6.10474 38.6412 7.01509 38.6412 8.13807V11.2613L35.9358 9.69967C34.9633 9.13821 33.7198 9.47139 33.1583 10.4439L31.1249 13.9656C30.8554 14.4327 30.7825 14.9878 30.9222 15.5087C31.062 16.0296 31.403 16.4737 31.8702 16.7431L34.5745 18.3047L31.8702 19.8663C31.403 20.1358 31.062 20.5799 30.9222 21.1008C30.7825 21.6217 30.8554 22.1767 31.1249 22.6439L33.1583 26.1656C33.7198 27.1381 34.9633 27.4713 35.9358 26.9098L38.6412 25.3482ZM32.8868 21.6272L37.1162 19.1872C37.4307 19.0056 37.6244 18.67 37.6244 18.3068C37.6244 17.9436 37.4307 17.608 37.1162 17.4263L32.8868 14.9863L34.9202 11.4646L39.1495 13.9046C39.465 14.0868 39.8538 14.0862 40.1688 13.9031C40.4838 13.72 40.6767 13.3824 40.6745 13.0181V8.13807H44.7412V13.0181C44.7412 13.3813 44.9349 13.7169 45.2495 13.8985C45.5641 14.0801 45.9516 14.0801 46.2662 13.8985L50.4955 11.4585L52.5288 14.9802L53.4093 14.4719L48.2995 17.4202C47.985 17.6019 47.7912 17.9375 47.7912 18.3007C47.7912 18.6639 47.985 18.9995 48.2995 19.1811L52.5288 21.6211L50.4955 25.1428L46.2662 22.7028C45.9503 22.5205 45.5611 22.5213 45.246 22.7049C44.9309 22.8884 44.7382 23.2267 44.7412 23.5914V28.4714H40.6745V23.5914C40.6745 23.2282 40.4807 22.8926 40.1661 22.711C39.8516 22.5294 39.464 22.5294 39.1495 22.711L34.9202 25.151L32.8868 21.6272Z" fill="url(#paint2_linear)" fill-opacity="0.52" style="mix-blend-mode:color"/>
<path d="M25.3563 36.192C25.7026 36.8567 26.3901 37.2733 27.1396 37.2728C27.2075 37.2724 27.2753 37.2686 27.3429 37.2616C30.1436 37.0426 32.8789 36.3027 35.4081 35.0798C43.8968 38.7744 53.8077 35.5475 58.4938 27.5631C63.1798 19.5788 61.1649 9.35247 53.8002 3.7426C46.4356 -1.86728 36.0414 -1.09338 29.5887 5.54527C23.136 12.1839 22.6576 22.5959 28.4744 29.7982C27.6757 31.272 26.7159 32.6527 25.6125 33.9147C25.0667 34.5488 24.9651 35.4525 25.3563 36.192ZM30.5983 30.0758C30.7658 29.7119 30.7041 29.2836 30.4407 28.9818C26.4735 24.424 25.3597 18.0428 27.5482 12.4105C29.7367 6.77826 34.8669 2.82323 40.8707 2.13981C41.474 2.0732 42.0805 2.03926 42.6874 2.03814C49.3639 2.02442 55.3709 6.09174 57.8371 12.296C60.3033 18.5003 58.728 25.5816 53.8641 30.1552C49.0002 34.7289 41.8354 35.866 35.7944 33.0231C35.4869 32.877 35.1266 32.8945 34.8347 33.0699C32.4523 34.3104 29.8396 35.0458 27.1599 35.2303C28.532 33.6741 29.6885 31.9404 30.5983 30.0758Z" fill="#272727"/>
<path d="M25.3563 36.192C25.7026 36.8567 26.3901 37.2733 27.1396 37.2728C27.2075 37.2724 27.2753 37.2686 27.3429 37.2616C30.1436 37.0426 32.8789 36.3027 35.4081 35.0798C43.8968 38.7744 53.8077 35.5475 58.4938 27.5631C63.1798 19.5788 61.1649 9.35247 53.8002 3.7426C46.4356 -1.86728 36.0414 -1.09338 29.5887 5.54527C23.136 12.1839 22.6576 22.5959 28.4744 29.7982C27.6757 31.272 26.7159 32.6527 25.6125 33.9147C25.0667 34.5488 24.9651 35.4525 25.3563 36.192ZM30.5983 30.0758C30.7658 29.7119 30.7041 29.2836 30.4407 28.9818C26.4735 24.424 25.3597 18.0428 27.5482 12.4105C29.7367 6.77826 34.8669 2.82323 40.8707 2.13981C41.474 2.0732 42.0805 2.03926 42.6874 2.03814C49.3639 2.02442 55.3709 6.09174 57.8371 12.296C60.3033 18.5003 58.728 25.5816 53.8641 30.1552C49.0002 34.7289 41.8354 35.866 35.7944 33.0231C35.4869 32.877 35.1266 32.8945 34.8347 33.0699C32.4523 34.3104 29.8396 35.0458 27.1599 35.2303C28.532 33.6741 29.6885 31.9404 30.5983 30.0758Z" fill="url(#paint3_linear)" fill-opacity="0.52" style="mix-blend-mode:color"/>
</g>
</g>
<defs>
<linearGradient id="paint0_linear" x1="50.8361" y1="20.6308" x2="-6.16606" y2="38.2376" gradientUnits="userSpaceOnUse">
<stop stop-color="#F92020" stop-opacity="0.64"/>
<stop offset="1" stop-color="#2B66FF" stop-opacity="0.57"/>
</linearGradient>
<linearGradient id="paint1_linear" x1="10.3476" y1="18.4225" x2="2.71921" y2="19.241" gradientUnits="userSpaceOnUse">
<stop stop-color="#F92020" stop-opacity="0.64"/>
<stop offset="1" stop-color="#2B66FF" stop-opacity="0.57"/>
</linearGradient>
<linearGradient id="paint2_linear" x1="54.5629" y1="11.1236" x2="27.8474" y2="19.1426" gradientUnits="userSpaceOnUse">
<stop stop-color="#F92020" stop-opacity="0.64"/>
<stop offset="1" stop-color="#2B66FF" stop-opacity="0.57"/>
</linearGradient>
<linearGradient id="paint3_linear" x1="61.0126" y1="7.66674" x2="19.844" y2="20.1545" gradientUnits="userSpaceOnUse">
<stop stop-color="#F92020" stop-opacity="0.64"/>
<stop offset="1" stop-color="#2B66FF" stop-opacity="0.57"/>
</linearGradient>
<clipPath id="clip0">
<rect width="61" height="61" fill="white"/>
</clipPath>
</defs>
</svg>
