<svg width="57" height="57" viewBox="0 0 57 57" fill="none" xmlns="http://www.w3.org/2000/svg">
<g clip-path="url(#clip0)">
<g opacity="0.87">
<path d="M46.7578 44.6429H40.4493V22.9678L44.3407 24.5244C44.474 24.5777 44.6143 24.604 44.754 24.604C44.9734 24.604 45.1914 24.5391 45.3782 24.4126C45.6842 24.2056 45.8674 23.8602 45.8674 23.4907V7.90447C45.8674 7.53508 45.6842 7.18974 45.3782 6.98256C45.0723 6.7756 44.6838 6.73352 44.3407 6.87078L40.3602 8.463C40.1777 7.5215 39.7178 6.65536 39.0196 5.96212C38.1028 5.05168 36.8866 4.55304 35.6138 4.5644H19.668C19.0533 4.5644 18.5547 5.06281 18.5547 5.67768C18.5547 6.29255 19.0533 6.79096 19.668 6.79096H35.6217C35.6279 6.79096 35.6339 6.79085 35.64 6.79085C36.32 6.79085 36.9626 7.05726 37.4509 7.54209C37.9318 8.0198 38.2034 8.64836 38.2211 9.31867L33.4069 11.2444H28.0549C25.5995 11.2444 23.6018 13.2421 23.6018 15.6975C23.6018 18.1531 25.5995 20.1507 28.0549 20.1507V27.9436C28.0549 28.5585 28.5534 29.0569 29.1682 29.0569H33.6213C34.2361 29.0569 34.7346 28.5585 34.7346 27.9436V20.6817L38.2228 22.0771V44.6427H37.1095C36.4947 44.6427 35.9962 45.1412 35.9962 45.756C35.9962 46.3709 36.4947 46.8693 37.1095 46.8693H45.6445V47.6114C45.6445 49.0438 44.4793 50.209 43.0469 50.209H16.3096C16.7908 49.4588 17.0702 48.5671 17.0702 47.6114V46.8693H28.2031C28.8178 46.8693 29.3164 46.3709 29.3164 45.756C29.3164 45.1412 28.8178 44.6427 28.2031 44.6427H15.9569C15.3421 44.6427 14.8436 45.1412 14.8436 45.756V47.6114C14.8436 49.0438 13.6783 50.209 12.246 50.209C10.8136 50.209 9.64836 49.0438 9.64836 47.6114V37.9628H17.8122V41.3028C17.8122 41.7531 18.0835 42.159 18.4994 42.3314C18.6371 42.3885 18.7818 42.4162 18.9252 42.4162C19.215 42.4162 19.4997 42.303 19.7126 42.0901L24.1659 37.6369C24.3746 37.4281 24.492 37.1449 24.492 36.8497V25.7167C24.492 23.8752 22.9937 22.3769 21.1521 22.3769H9.64836V9.3888C9.64836 8.43272 9.36771 7.54165 8.8861 6.79118H10.7618C11.3765 6.79118 11.875 6.29277 11.875 5.6779C11.875 5.06304 11.3765 4.56462 10.7618 4.56462H4.82418C2.16411 4.56451 0 6.72873 0 9.3888V11.2442C0 11.8591 0.498527 12.3575 1.11328 12.3575H7.4218V22.377H3.33973C1.49814 22.3769 0 23.8752 0 25.7167V34.623C0 36.4646 1.49814 37.9628 3.33973 37.9628H7.4218V47.6114C7.4218 50.2715 9.58591 52.4356 12.246 52.4356H43.0469C45.707 52.4356 47.8711 50.2715 47.8711 47.6114V45.756C47.8711 45.1413 47.3726 44.6429 46.7578 44.6429ZM25.8282 15.6975C25.8282 14.4698 26.8271 13.471 28.0548 13.471H32.5079V17.9241H28.0548C26.8271 17.9242 25.8282 16.9253 25.8282 15.6975ZM30.2814 26.8305V20.1508H32.5079V26.8305H30.2814ZM34.7345 13.1115L43.6409 9.54889V21.8464L39.7705 20.2983C39.7692 20.2977 39.768 20.2973 39.7666 20.2967L34.7346 18.2838V13.1115H34.7345ZM2.22656 10.1309V9.3888C2.22656 7.95646 3.39183 6.79118 4.82418 6.79118C6.25653 6.79118 7.4218 7.95646 7.4218 9.3888V10.1309H2.22656ZM2.22656 34.623V25.7167C2.22656 25.1029 2.72587 24.6035 3.33973 24.6035H21.1521C21.766 24.6035 22.2654 25.1029 22.2654 25.7167V36.3884L20.0387 38.6151V36.8496C20.0387 36.2347 19.5402 35.7363 18.9254 35.7363H3.33973C2.72587 35.7363 2.22656 35.2369 2.22656 34.623Z" fill="#272727"/>
<path d="M46.7578 44.6429H40.4493V22.9678L44.3407 24.5244C44.474 24.5777 44.6143 24.604 44.754 24.604C44.9734 24.604 45.1914 24.5391 45.3782 24.4126C45.6842 24.2056 45.8674 23.8602 45.8674 23.4907V7.90447C45.8674 7.53508 45.6842 7.18974 45.3782 6.98256C45.0723 6.7756 44.6838 6.73352 44.3407 6.87078L40.3602 8.463C40.1777 7.5215 39.7178 6.65536 39.0196 5.96212C38.1028 5.05168 36.8866 4.55304 35.6138 4.5644H19.668C19.0533 4.5644 18.5547 5.06281 18.5547 5.67768C18.5547 6.29255 19.0533 6.79096 19.668 6.79096H35.6217C35.6279 6.79096 35.6339 6.79085 35.64 6.79085C36.32 6.79085 36.9626 7.05726 37.4509 7.54209C37.9318 8.0198 38.2034 8.64836 38.2211 9.31867L33.4069 11.2444H28.0549C25.5995 11.2444 23.6018 13.2421 23.6018 15.6975C23.6018 18.1531 25.5995 20.1507 28.0549 20.1507V27.9436C28.0549 28.5585 28.5534 29.0569 29.1682 29.0569H33.6213C34.2361 29.0569 34.7346 28.5585 34.7346 27.9436V20.6817L38.2228 22.0771V44.6427H37.1095C36.4947 44.6427 35.9962 45.1412 35.9962 45.756C35.9962 46.3709 36.4947 46.8693 37.1095 46.8693H45.6445V47.6114C45.6445 49.0438 44.4793 50.209 43.0469 50.209H16.3096C16.7908 49.4588 17.0702 48.5671 17.0702 47.6114V46.8693H28.2031C28.8178 46.8693 29.3164 46.3709 29.3164 45.756C29.3164 45.1412 28.8178 44.6427 28.2031 44.6427H15.9569C15.3421 44.6427 14.8436 45.1412 14.8436 45.756V47.6114C14.8436 49.0438 13.6783 50.209 12.246 50.209C10.8136 50.209 9.64836 49.0438 9.64836 47.6114V37.9628H17.8122V41.3028C17.8122 41.7531 18.0835 42.159 18.4994 42.3314C18.6371 42.3885 18.7818 42.4162 18.9252 42.4162C19.215 42.4162 19.4997 42.303 19.7126 42.0901L24.1659 37.6369C24.3746 37.4281 24.492 37.1449 24.492 36.8497V25.7167C24.492 23.8752 22.9937 22.3769 21.1521 22.3769H9.64836V9.3888C9.64836 8.43272 9.36771 7.54165 8.8861 6.79118H10.7618C11.3765 6.79118 11.875 6.29277 11.875 5.6779C11.875 5.06304 11.3765 4.56462 10.7618 4.56462H4.82418C2.16411 4.56451 0 6.72873 0 9.3888V11.2442C0 11.8591 0.498527 12.3575 1.11328 12.3575H7.4218V22.377H3.33973C1.49814 22.3769 0 23.8752 0 25.7167V34.623C0 36.4646 1.49814 37.9628 3.33973 37.9628H7.4218V47.6114C7.4218 50.2715 9.58591 52.4356 12.246 52.4356H43.0469C45.707 52.4356 47.8711 50.2715 47.8711 47.6114V45.756C47.8711 45.1413 47.3726 44.6429 46.7578 44.6429ZM25.8282 15.6975C25.8282 14.4698 26.8271 13.471 28.0548 13.471H32.5079V17.9241H28.0548C26.8271 17.9242 25.8282 16.9253 25.8282 15.6975ZM30.2814 26.8305V20.1508H32.5079V26.8305H30.2814ZM34.7345 13.1115L43.6409 9.54889V21.8464L39.7705 20.2983C39.7692 20.2977 39.768 20.2973 39.7666 20.2967L34.7346 18.2838V13.1115H34.7345ZM2.22656 10.1309V9.3888C2.22656 7.95646 3.39183 6.79118 4.82418 6.79118C6.25653 6.79118 7.4218 7.95646 7.4218 9.3888V10.1309H2.22656ZM2.22656 34.623V25.7167C2.22656 25.1029 2.72587 24.6035 3.33973 24.6035H21.1521C21.766 24.6035 22.2654 25.1029 22.2654 25.7167V36.3884L20.0387 38.6151V36.8496C20.0387 36.2347 19.5402 35.7363 18.9254 35.7363H3.33973C2.72587 35.7363 2.22656 35.2369 2.22656 34.623Z" fill="url(#paint0_linear)" fill-opacity="0.52" style="mix-blend-mode:color"/>
<path d="M55.0611 8.46133C54.7537 7.92884 54.0728 7.74649 53.5404 8.05387C53.0079 8.36124 52.8254 9.04213 53.1329 9.57461C54.2063 11.4337 54.7735 13.551 54.7735 15.6977C54.7735 17.8443 54.2062 19.9616 53.1329 21.8207C52.8254 22.3532 53.0079 23.0341 53.5404 23.3414C53.7157 23.4428 53.9071 23.4908 54.0959 23.4908C54.4806 23.4908 54.8549 23.2911 55.0611 22.934C56.3297 20.7369 57.0001 18.2346 57.0001 15.6977C57.0001 13.1607 56.3297 10.6584 55.0611 8.46133Z" fill="#272727"/>
<path d="M55.0611 8.46133C54.7537 7.92884 54.0728 7.74649 53.5404 8.05387C53.0079 8.36124 52.8254 9.04213 53.1329 9.57461C54.2063 11.4337 54.7735 13.551 54.7735 15.6977C54.7735 17.8443 54.2062 19.9616 53.1329 21.8207C52.8254 22.3532 53.0079 23.0341 53.5404 23.3414C53.7157 23.4428 53.9071 23.4908 54.0959 23.4908C54.4806 23.4908 54.8549 23.2911 55.0611 22.934C56.3297 20.7369 57.0001 18.2346 57.0001 15.6977C57.0001 13.1607 56.3297 10.6584 55.0611 8.46133Z" fill="url(#paint1_linear)" fill-opacity="0.52" style="mix-blend-mode:color"/>
<path d="M49.6838 10.2804C49.1513 10.5878 48.9688 11.2687 49.2763 11.8011C49.9593 12.9841 50.3204 14.3315 50.3204 15.6976C50.3204 17.0637 49.9593 18.4111 49.2763 19.5941C48.9688 20.1266 49.1513 20.8075 49.6838 21.1149C49.8591 21.2162 50.0505 21.2643 50.2393 21.2643C50.6241 21.2643 50.9984 21.0645 51.2045 20.7074C52.0828 19.1863 52.5469 17.4539 52.5469 15.6976C52.5469 13.9413 52.0828 12.2089 51.2045 10.6879C50.8973 10.1555 50.2163 9.97303 49.6838 10.2804Z" fill="#272727"/>
<path d="M49.6838 10.2804C49.1513 10.5878 48.9688 11.2687 49.2763 11.8011C49.9593 12.9841 50.3204 14.3315 50.3204 15.6976C50.3204 17.0637 49.9593 18.4111 49.2763 19.5941C48.9688 20.1266 49.1513 20.8075 49.6838 21.1149C49.8591 21.2162 50.0505 21.2643 50.2393 21.2643C50.6241 21.2643 50.9984 21.0645 51.2045 20.7074C52.0828 19.1863 52.5469 17.4539 52.5469 15.6976C52.5469 13.9413 52.0828 12.2089 51.2045 10.6879C50.8973 10.1555 50.2163 9.97303 49.6838 10.2804Z" fill="url(#paint2_linear)" fill-opacity="0.52" style="mix-blend-mode:color"/>
<path d="M12.2464 31.2832C12.8612 31.2832 13.3597 30.7848 13.3597 30.1699C13.3597 29.5551 12.8612 29.0566 12.2464 29.0566H12.2455C11.6308 29.0566 11.1327 29.5551 11.1327 30.1699C11.1327 30.7848 11.6316 31.2832 12.2464 31.2832Z" fill="#272727"/>
<path d="M12.2464 31.2832C12.8612 31.2832 13.3597 30.7848 13.3597 30.1699C13.3597 29.5551 12.8612 29.0566 12.2464 29.0566H12.2455C11.6308 29.0566 11.1327 29.5551 11.1327 30.1699C11.1327 30.7848 11.6316 31.2832 12.2464 31.2832Z" fill="url(#paint3_linear)" fill-opacity="0.52" style="mix-blend-mode:color"/>
<path d="M8.90645 30.1699C8.90645 29.5551 8.40792 29.0566 7.79317 29.0566H7.79228C7.17753 29.0566 6.67944 29.5551 6.67944 30.1699C6.67944 30.7848 7.1783 31.2832 7.79317 31.2832C8.40803 31.2832 8.90645 30.7848 8.90645 30.1699Z" fill="#272727"/>
<path d="M8.90645 30.1699C8.90645 29.5551 8.40792 29.0566 7.79317 29.0566H7.79228C7.17753 29.0566 6.67944 29.5551 6.67944 30.1699C6.67944 30.7848 7.1783 31.2832 7.79317 31.2832C8.40803 31.2832 8.90645 30.7848 8.90645 30.1699Z" fill="url(#paint4_linear)" fill-opacity="0.52" style="mix-blend-mode:color"/>
<path d="M16.6997 31.2832C17.3144 31.2832 17.813 30.7848 17.813 30.1699C17.813 29.5551 17.3144 29.0566 16.6997 29.0566H16.6989C16.0841 29.0566 15.5861 29.5551 15.5861 30.1699C15.5861 30.7848 16.0848 31.2832 16.6997 31.2832Z" fill="#272727"/>
<path d="M16.6997 31.2832C17.3144 31.2832 17.813 30.7848 17.813 30.1699C17.813 29.5551 17.3144 29.0566 16.6997 29.0566H16.6989C16.0841 29.0566 15.5861 29.5551 15.5861 30.1699C15.5861 30.7848 16.0848 31.2832 16.6997 31.2832Z" fill="url(#paint5_linear)" fill-opacity="0.52" style="mix-blend-mode:color"/>
<path d="M15.2153 6.79102C15.83 6.79102 16.3286 6.2926 16.3286 5.67774C16.3286 5.06287 15.83 4.56445 15.2153 4.56445H15.2144C14.5996 4.56445 14.1016 5.06287 14.1016 5.67774C14.1016 6.2926 14.6004 6.79102 15.2153 6.79102Z" fill="#272727"/>
<path d="M15.2153 6.79102C15.83 6.79102 16.3286 6.2926 16.3286 5.67774C16.3286 5.06287 15.83 4.56445 15.2153 4.56445H15.2144C14.5996 4.56445 14.1016 5.06287 14.1016 5.67774C14.1016 6.2926 14.6004 6.79102 15.2153 6.79102Z" fill="url(#paint6_linear)" fill-opacity="0.52" style="mix-blend-mode:color"/>
<path d="M32.6558 44.6428C32.0411 44.6428 31.543 45.1412 31.543 45.7561C31.543 46.371 32.0418 46.8694 32.6567 46.8694C33.2716 46.8694 33.77 46.371 33.77 45.7561C33.77 45.1412 33.2714 44.6428 32.6567 44.6428H32.6558Z" fill="#272727"/>
<path d="M32.6558 44.6428C32.0411 44.6428 31.543 45.1412 31.543 45.7561C31.543 46.371 32.0418 46.8694 32.6567 46.8694C33.2716 46.8694 33.77 46.371 33.77 45.7561C33.77 45.1412 33.2714 44.6428 32.6567 44.6428H32.6558Z" fill="url(#paint7_linear)" fill-opacity="0.52" style="mix-blend-mode:color"/>
<path d="M12.9884 12.3574H20.2618C20.8766 12.3574 21.3751 11.859 21.3751 11.2441C21.3751 10.6293 20.8766 10.1309 20.2618 10.1309H12.9884C12.3736 10.1309 11.8751 10.6293 11.8751 11.2441C11.8751 11.859 12.3736 12.3574 12.9884 12.3574Z" fill="#272727"/>
<path d="M12.9884 12.3574H20.2618C20.8766 12.3574 21.3751 11.859 21.3751 11.2441C21.3751 10.6293 20.8766 10.1309 20.2618 10.1309H12.9884C12.3736 10.1309 11.8751 10.6293 11.8751 11.2441C11.8751 11.859 12.3736 12.3574 12.9884 12.3574Z" fill="url(#paint8_linear)" fill-opacity="0.52" style="mix-blend-mode:color"/>
<path d="M12.9884 16.8105H18.0351C18.6499 16.8105 19.1484 16.3121 19.1484 15.6973C19.1484 15.0824 18.6499 14.584 18.0351 14.584H12.9884C12.3736 14.584 11.8751 15.0824 11.8751 15.6973C11.8751 16.3121 12.3736 16.8105 12.9884 16.8105Z" fill="#272727"/>
<path d="M12.9884 16.8105H18.0351C18.6499 16.8105 19.1484 16.3121 19.1484 15.6973C19.1484 15.0824 18.6499 14.584 18.0351 14.584H12.9884C12.3736 14.584 11.8751 15.0824 11.8751 15.6973C11.8751 16.3121 12.3736 16.8105 12.9884 16.8105Z" fill="url(#paint9_linear)" fill-opacity="0.52" style="mix-blend-mode:color"/>
<path d="M34.8827 37.9629C35.4974 37.9629 35.9959 37.4645 35.9959 36.8496C35.9959 36.2347 35.4974 35.7363 34.8827 35.7363H29.8359C29.2212 35.7363 28.7227 36.2347 28.7227 36.8496C28.7227 37.4645 29.2212 37.9629 29.8359 37.9629H34.8827Z" fill="#272727"/>
<path d="M34.8827 37.9629C35.4974 37.9629 35.9959 37.4645 35.9959 36.8496C35.9959 36.2347 35.4974 35.7363 34.8827 35.7363H29.8359C29.2212 35.7363 28.7227 36.2347 28.7227 36.8496C28.7227 37.4645 29.2212 37.9629 29.8359 37.9629H34.8827Z" fill="url(#paint10_linear)" fill-opacity="0.52" style="mix-blend-mode:color"/>
<path d="M26.496 41.3027C26.496 41.9176 26.9945 42.416 27.6093 42.416H34.8827C35.4974 42.416 35.9959 41.9176 35.9959 41.3027C35.9959 40.6879 35.4974 40.1895 34.8827 40.1895H27.6093C26.9945 40.1895 26.496 40.6879 26.496 41.3027Z" fill="#272727"/>
<path d="M26.496 41.3027C26.496 41.9176 26.9945 42.416 27.6093 42.416H34.8827C35.4974 42.416 35.9959 41.9176 35.9959 41.3027C35.9959 40.6879 35.4974 40.1895 34.8827 40.1895H27.6093C26.9945 40.1895 26.496 40.6879 26.496 41.3027Z" fill="url(#paint11_linear)" fill-opacity="0.52" style="mix-blend-mode:color"/>
</g>
</g>
<defs>
<linearGradient id="paint0_linear" x1="47.8711" y1="14.411" x2="-5.80596" y2="30.9916" gradientUnits="userSpaceOnUse">
<stop stop-color="#F92020" stop-opacity="0.64"/>
<stop offset="1" stop-color="#2B66FF" stop-opacity="0.57"/>
</linearGradient>
<linearGradient id="paint1_linear" x1="57.0001" y1="11.1105" x2="52.0977" y2="11.5008" gradientUnits="userSpaceOnUse">
<stop stop-color="#F92020" stop-opacity="0.64"/>
<stop offset="1" stop-color="#2B66FF" stop-opacity="0.57"/>
</linearGradient>
<linearGradient id="paint2_linear" x1="52.5469" y1="12.4211" x2="48.3838" y2="12.8162" gradientUnits="userSpaceOnUse">
<stop stop-color="#F92020" stop-opacity="0.64"/>
<stop offset="1" stop-color="#2B66FF" stop-opacity="0.57"/>
</linearGradient>
<linearGradient id="paint3_linear" x1="13.3597" y1="29.5146" x2="10.8627" y2="30.2861" gradientUnits="userSpaceOnUse">
<stop stop-color="#F92020" stop-opacity="0.64"/>
<stop offset="1" stop-color="#2B66FF" stop-opacity="0.57"/>
</linearGradient>
<linearGradient id="paint4_linear" x1="8.90645" y1="29.5146" x2="6.40943" y2="30.2861" gradientUnits="userSpaceOnUse">
<stop stop-color="#F92020" stop-opacity="0.64"/>
<stop offset="1" stop-color="#2B66FF" stop-opacity="0.57"/>
</linearGradient>
<linearGradient id="paint5_linear" x1="17.813" y1="29.5146" x2="15.316" y2="30.286" gradientUnits="userSpaceOnUse">
<stop stop-color="#F92020" stop-opacity="0.64"/>
<stop offset="1" stop-color="#2B66FF" stop-opacity="0.57"/>
</linearGradient>
<linearGradient id="paint6_linear" x1="16.3286" y1="5.02244" x2="13.8316" y2="5.79391" gradientUnits="userSpaceOnUse">
<stop stop-color="#F92020" stop-opacity="0.64"/>
<stop offset="1" stop-color="#2B66FF" stop-opacity="0.57"/>
</linearGradient>
<linearGradient id="paint7_linear" x1="33.77" y1="45.1008" x2="31.273" y2="45.8723" gradientUnits="userSpaceOnUse">
<stop stop-color="#F92020" stop-opacity="0.64"/>
<stop offset="1" stop-color="#2B66FF" stop-opacity="0.57"/>
</linearGradient>
<linearGradient id="paint8_linear" x1="21.3751" y1="10.5888" x2="17.1118" y2="16.2076" gradientUnits="userSpaceOnUse">
<stop stop-color="#F92020" stop-opacity="0.64"/>
<stop offset="1" stop-color="#2B66FF" stop-opacity="0.57"/>
</linearGradient>
<linearGradient id="paint9_linear" x1="19.1484" y1="15.042" x2="14.7218" y2="19.5086" gradientUnits="userSpaceOnUse">
<stop stop-color="#F92020" stop-opacity="0.64"/>
<stop offset="1" stop-color="#2B66FF" stop-opacity="0.57"/>
</linearGradient>
<linearGradient id="paint10_linear" x1="35.9959" y1="36.1943" x2="31.5694" y2="40.6609" gradientUnits="userSpaceOnUse">
<stop stop-color="#F92020" stop-opacity="0.64"/>
<stop offset="1" stop-color="#2B66FF" stop-opacity="0.57"/>
</linearGradient>
<linearGradient id="paint11_linear" x1="35.9959" y1="40.6474" x2="31.7327" y2="46.2662" gradientUnits="userSpaceOnUse">
<stop stop-color="#F92020" stop-opacity="0.64"/>
<stop offset="1" stop-color="#2B66FF" stop-opacity="0.57"/>
</linearGradient>
<clipPath id="clip0">
<rect width="57" height="57" fill="white"/>
</clipPath>
</defs>
</svg>
