<svg width="64" height="63" viewBox="0 0 64 63" fill="none" xmlns="http://www.w3.org/2000/svg">
<g clip-path="url(#clip0)">
<g opacity="0.87">
<path d="M63.06 36.7057C62.5422 36.7057 62.1226 37.1188 62.1226 37.6285V53.3339C62.1226 54.1166 61.4756 54.7534 60.6806 54.7534H60.6512C60.6502 53.5805 60.6488 53.5683 60.6385 53.4679L60.6378 53.461V53.4609C60.5277 52.3029 60.0088 51.2274 59.1766 50.4327C57.6569 48.9816 54.9762 48.5385 51.9282 48.1597L51.9204 46.3442C53.317 45.2863 54.0775 43.8464 54.2736 42.292C54.3072 42.0254 54.4012 41.7724 54.5456 41.5605C54.94 40.981 55.1479 40.3061 55.1467 39.6086L55.1389 35.5802C55.1272 32.7964 52.8368 30.5139 49.9711 30.5139H49.9486L45.5852 30.532C44.4774 30.5366 43.4827 31.1949 43.0547 32.188C41.6102 32.2881 40.469 33.48 40.4751 34.9236L40.4851 39.633C40.4866 40.3417 40.7031 41.0243 41.1113 41.6075C41.1135 41.6107 41.1157 41.6139 41.118 41.6171C41.267 41.829 41.3654 42.0846 41.4025 42.3565C41.6122 43.8914 42.3762 45.3268 43.7887 46.3781L43.7964 48.1933C42.1796 48.4079 39.3474 48.866 37.8994 49.585C36.1995 50.4287 35.1366 52.2211 35.1886 54.154V54.7534H28.7931C28.7948 53.7674 28.8014 53.9249 28.7974 53.845C28.7773 52.557 28.2369 51.3133 27.3149 50.4327C25.794 48.98 23.129 48.5403 20.0665 48.1597L20.0591 46.4279C21.5095 45.3719 22.3197 43.9174 22.5245 42.2922C22.5584 42.0254 22.6523 41.7723 22.7965 41.5607C23.1911 40.9813 23.3991 40.3062 23.3978 39.6086L23.3901 35.5802C23.3781 32.7959 21.0875 30.5139 18.2222 30.5139H18.1997L13.8363 30.532C12.7288 30.5366 11.7341 31.1948 11.3058 32.188C9.8614 32.2881 8.71999 33.48 8.72624 34.9236L8.73612 39.6333C8.73787 40.342 8.95435 41.0245 9.36244 41.6075C9.36469 41.6107 9.36682 41.6139 9.36919 41.6171C9.51805 41.8289 9.61655 42.0846 9.65367 42.3565C9.86303 43.8889 10.6218 45.2814 11.9266 46.2921L11.9347 48.1933C10.3324 48.4059 7.48134 48.8656 6.03771 49.585C4.33784 50.4287 3.27505 52.221 3.32693 54.1539V54.7534H3.3193C2.52424 54.7534 1.87729 54.1166 1.87729 53.3339V50.1686C1.87729 49.6588 1.4577 49.2458 0.939866 49.2458C0.422033 49.2458 0.00244141 49.6588 0.00244141 50.1686V53.3339C0.00244141 55.1343 1.49032 56.599 3.3193 56.599H3.32693V60.5841C3.32693 61.9161 4.42796 63 5.7811 63H26.3415C27.6987 63 28.7974 61.918 28.7956 60.5813C28.7935 58.8402 28.7925 57.5521 28.7923 56.5991H35.1886V60.5843C35.1886 61.9163 36.2897 63.0001 37.6428 63.0001H58.2032C59.5607 63.0001 60.6588 61.918 60.6573 60.5813C60.655 58.8625 60.6536 57.5711 60.6527 56.5992H60.6806C62.5096 56.5992 63.9974 55.1346 63.9974 53.3342V37.6285C63.9974 37.1188 63.5777 36.7057 63.06 36.7057ZM13.806 47.3368C15.1792 47.837 16.6921 47.8953 18.1882 47.3969L18.1917 48.204C18.1927 48.4253 18.2349 48.6382 18.3113 48.8355C16.8332 49.3973 15.1787 49.4041 13.6957 48.8547C13.7705 48.6568 13.8107 48.4435 13.8098 48.2223L13.806 47.3368ZM11.5118 42.1104C11.4357 41.5537 11.2294 41.0223 10.9153 40.5733C10.9132 40.5702 10.9111 40.567 10.9088 40.5639C10.7148 40.2881 10.6118 39.9649 10.6111 39.6294L10.6011 34.9179C10.599 34.4286 11.0016 34.029 11.4945 34.0269H11.5196C12.188 34.0238 12.787 33.5965 13.0101 32.9638C13.1333 32.6146 13.4685 32.3792 13.8441 32.3776L18.2075 32.3595H18.2219C20.0396 32.3595 21.5075 33.8054 21.5151 35.5857L21.5228 39.612C21.5235 39.9413 21.4255 40.2597 21.239 40.5332C20.9325 40.9834 20.7337 41.5129 20.6638 42.0647C20.5334 43.0994 20.0438 44.0262 19.2856 44.6745C17.3898 46.2945 14.8109 46.2976 12.9114 44.7011C12.1497 44.0608 11.6526 43.1408 11.5118 42.1104ZM26.3415 61.1544H5.7811C5.46163 61.1544 5.20177 60.8986 5.20177 60.5841V54.1413C5.20177 54.1323 5.20165 54.1234 5.2014 54.1144C5.16503 52.8888 5.82473 51.7577 6.88264 51.2325C8.04005 50.6581 10.6146 50.2392 11.9 50.061C14.4378 51.4656 17.5918 51.4523 20.1171 50.027C21.9307 50.2631 24.8523 50.6522 26.0094 51.7572C26.5744 52.297 26.907 53.0631 26.9227 53.8613C26.919 54.0669 26.9139 55.0549 26.9208 60.5835C26.9213 60.8989 26.6619 61.1544 26.3415 61.1544ZM45.6678 47.3766C47.0733 47.86 48.5862 47.8754 50.0498 47.3584L50.0534 48.2042C50.0544 48.4254 50.0966 48.6384 50.173 48.8356C48.6949 49.3974 47.0404 49.4043 45.5574 48.8548C45.6322 48.6569 45.6724 48.4436 45.6714 48.2224L45.6678 47.3766ZM43.2605 42.1106C43.1845 41.554 42.9782 41.0225 42.6639 40.5733C42.6618 40.5702 42.6596 40.567 42.6574 40.5639C42.4634 40.2882 42.3605 39.965 42.3598 39.6294L42.3498 34.9179C42.3477 34.4286 42.7504 34.029 43.2434 34.0269H43.2685C43.9365 34.0238 44.5355 33.5966 44.759 32.9637C44.8821 32.6146 45.2172 32.3792 45.5928 32.3776L49.9562 32.3595H49.9706C51.7915 32.3595 53.2562 33.809 53.2638 35.5857L53.2715 39.612C53.2722 39.9413 53.1742 40.2597 52.9878 40.5332C52.6811 40.9836 52.4822 41.5133 52.4126 42.0647C52.2823 43.0994 51.7927 44.0262 51.0344 44.6745C49.1325 46.2994 46.552 46.2925 44.6602 44.7011C43.8984 44.0607 43.4012 43.1407 43.2605 42.1106ZM58.2032 61.1544H37.6428C37.3233 61.1544 37.0635 60.8986 37.0635 60.5841C37.0634 52.4514 37.0717 54.4282 37.0631 54.1144C37.027 52.8958 37.682 51.701 38.8798 51.1689C39.7848 50.7678 41.553 50.3673 43.7617 50.0612C46.2994 51.4658 49.4534 51.4525 51.9787 50.0271C53.8113 50.2657 56.7159 50.6547 57.8711 51.7574C58.383 52.2463 58.7025 52.9123 58.771 53.6328L58.7729 53.6508C58.7755 53.73 58.7759 54.1416 58.7767 55.3009C58.7776 56.3157 58.7789 57.9468 58.7825 60.5835C58.7827 60.899 58.5238 61.1544 58.2032 61.1544Z" fill="#272727"/>
<path d="M63.06 36.7057C62.5422 36.7057 62.1226 37.1188 62.1226 37.6285V53.3339C62.1226 54.1166 61.4756 54.7534 60.6806 54.7534H60.6512C60.6502 53.5805 60.6488 53.5683 60.6385 53.4679L60.6378 53.461V53.4609C60.5277 52.3029 60.0088 51.2274 59.1766 50.4327C57.6569 48.9816 54.9762 48.5385 51.9282 48.1597L51.9204 46.3442C53.317 45.2863 54.0775 43.8464 54.2736 42.292C54.3072 42.0254 54.4012 41.7724 54.5456 41.5605C54.94 40.981 55.1479 40.3061 55.1467 39.6086L55.1389 35.5802C55.1272 32.7964 52.8368 30.5139 49.9711 30.5139H49.9486L45.5852 30.532C44.4774 30.5366 43.4827 31.1949 43.0547 32.188C41.6102 32.2881 40.469 33.48 40.4751 34.9236L40.4851 39.633C40.4866 40.3417 40.7031 41.0243 41.1113 41.6075C41.1135 41.6107 41.1157 41.6139 41.118 41.6171C41.267 41.829 41.3654 42.0846 41.4025 42.3565C41.6122 43.8914 42.3762 45.3268 43.7887 46.3781L43.7964 48.1933C42.1796 48.4079 39.3474 48.866 37.8994 49.585C36.1995 50.4287 35.1366 52.2211 35.1886 54.154V54.7534H28.7931C28.7948 53.7674 28.8014 53.9249 28.7974 53.845C28.7773 52.557 28.2369 51.3133 27.3149 50.4327C25.794 48.98 23.129 48.5403 20.0665 48.1597L20.0591 46.4279C21.5095 45.3719 22.3197 43.9174 22.5245 42.2922C22.5584 42.0254 22.6523 41.7723 22.7965 41.5607C23.1911 40.9813 23.3991 40.3062 23.3978 39.6086L23.3901 35.5802C23.3781 32.7959 21.0875 30.5139 18.2222 30.5139H18.1997L13.8363 30.532C12.7288 30.5366 11.7341 31.1948 11.3058 32.188C9.8614 32.2881 8.71999 33.48 8.72624 34.9236L8.73612 39.6333C8.73787 40.342 8.95435 41.0245 9.36244 41.6075C9.36469 41.6107 9.36682 41.6139 9.36919 41.6171C9.51805 41.8289 9.61655 42.0846 9.65367 42.3565C9.86303 43.8889 10.6218 45.2814 11.9266 46.2921L11.9347 48.1933C10.3324 48.4059 7.48134 48.8656 6.03771 49.585C4.33784 50.4287 3.27505 52.221 3.32693 54.1539V54.7534H3.3193C2.52424 54.7534 1.87729 54.1166 1.87729 53.3339V50.1686C1.87729 49.6588 1.4577 49.2458 0.939866 49.2458C0.422033 49.2458 0.00244141 49.6588 0.00244141 50.1686V53.3339C0.00244141 55.1343 1.49032 56.599 3.3193 56.599H3.32693V60.5841C3.32693 61.9161 4.42796 63 5.7811 63H26.3415C27.6987 63 28.7974 61.918 28.7956 60.5813C28.7935 58.8402 28.7925 57.5521 28.7923 56.5991H35.1886V60.5843C35.1886 61.9163 36.2897 63.0001 37.6428 63.0001H58.2032C59.5607 63.0001 60.6588 61.918 60.6573 60.5813C60.655 58.8625 60.6536 57.5711 60.6527 56.5992H60.6806C62.5096 56.5992 63.9974 55.1346 63.9974 53.3342V37.6285C63.9974 37.1188 63.5777 36.7057 63.06 36.7057ZM13.806 47.3368C15.1792 47.837 16.6921 47.8953 18.1882 47.3969L18.1917 48.204C18.1927 48.4253 18.2349 48.6382 18.3113 48.8355C16.8332 49.3973 15.1787 49.4041 13.6957 48.8547C13.7705 48.6568 13.8107 48.4435 13.8098 48.2223L13.806 47.3368ZM11.5118 42.1104C11.4357 41.5537 11.2294 41.0223 10.9153 40.5733C10.9132 40.5702 10.9111 40.567 10.9088 40.5639C10.7148 40.2881 10.6118 39.9649 10.6111 39.6294L10.6011 34.9179C10.599 34.4286 11.0016 34.029 11.4945 34.0269H11.5196C12.188 34.0238 12.787 33.5965 13.0101 32.9638C13.1333 32.6146 13.4685 32.3792 13.8441 32.3776L18.2075 32.3595H18.2219C20.0396 32.3595 21.5075 33.8054 21.5151 35.5857L21.5228 39.612C21.5235 39.9413 21.4255 40.2597 21.239 40.5332C20.9325 40.9834 20.7337 41.5129 20.6638 42.0647C20.5334 43.0994 20.0438 44.0262 19.2856 44.6745C17.3898 46.2945 14.8109 46.2976 12.9114 44.7011C12.1497 44.0608 11.6526 43.1408 11.5118 42.1104ZM26.3415 61.1544H5.7811C5.46163 61.1544 5.20177 60.8986 5.20177 60.5841V54.1413C5.20177 54.1323 5.20165 54.1234 5.2014 54.1144C5.16503 52.8888 5.82473 51.7577 6.88264 51.2325C8.04005 50.6581 10.6146 50.2392 11.9 50.061C14.4378 51.4656 17.5918 51.4523 20.1171 50.027C21.9307 50.2631 24.8523 50.6522 26.0094 51.7572C26.5744 52.297 26.907 53.0631 26.9227 53.8613C26.919 54.0669 26.9139 55.0549 26.9208 60.5835C26.9213 60.8989 26.6619 61.1544 26.3415 61.1544ZM45.6678 47.3766C47.0733 47.86 48.5862 47.8754 50.0498 47.3584L50.0534 48.2042C50.0544 48.4254 50.0966 48.6384 50.173 48.8356C48.6949 49.3974 47.0404 49.4043 45.5574 48.8548C45.6322 48.6569 45.6724 48.4436 45.6714 48.2224L45.6678 47.3766ZM43.2605 42.1106C43.1845 41.554 42.9782 41.0225 42.6639 40.5733C42.6618 40.5702 42.6596 40.567 42.6574 40.5639C42.4634 40.2882 42.3605 39.965 42.3598 39.6294L42.3498 34.9179C42.3477 34.4286 42.7504 34.029 43.2434 34.0269H43.2685C43.9365 34.0238 44.5355 33.5966 44.759 32.9637C44.8821 32.6146 45.2172 32.3792 45.5928 32.3776L49.9562 32.3595H49.9706C51.7915 32.3595 53.2562 33.809 53.2638 35.5857L53.2715 39.612C53.2722 39.9413 53.1742 40.2597 52.9878 40.5332C52.6811 40.9836 52.4822 41.5133 52.4126 42.0647C52.2823 43.0994 51.7927 44.0262 51.0344 44.6745C49.1325 46.2994 46.552 46.2925 44.6602 44.7011C43.8984 44.0607 43.4012 43.1407 43.2605 42.1106ZM58.2032 61.1544H37.6428C37.3233 61.1544 37.0635 60.8986 37.0635 60.5841C37.0634 52.4514 37.0717 54.4282 37.0631 54.1144C37.027 52.8958 37.682 51.701 38.8798 51.1689C39.7848 50.7678 41.553 50.3673 43.7617 50.0612C46.2994 51.4658 49.4534 51.4525 51.9787 50.0271C53.8113 50.2657 56.7159 50.6547 57.8711 51.7574C58.383 52.2463 58.7025 52.9123 58.771 53.6328L58.7729 53.6508C58.7755 53.73 58.7759 54.1416 58.7767 55.3009C58.7776 56.3157 58.7789 57.9468 58.7825 60.5835C58.7827 60.899 58.5238 61.1544 58.2032 61.1544Z" fill="url(#paint0_linear)" fill-opacity="0.52" style="mix-blend-mode:color"/>
<path d="M60.6808 27.4022H60.6548C60.653 26.2957 60.6472 24.0172 60.6583 23.5698C60.6916 22.2158 60.1779 20.9106 59.2491 19.9888C57.7414 18.4936 54.966 18.0233 51.9288 17.646L51.921 15.8304C53.2523 14.8223 54.0156 13.4561 54.2492 11.9554C55.067 11.7476 55.7062 11.0095 55.7024 10.0965L55.6977 9.00028C55.6955 8.49657 55.4949 8.0262 55.1506 7.67751L55.1394 5.06642C55.1274 2.2896 52.8445 0 49.9717 0H49.9492L45.5857 0.0180864C44.4781 0.0226388 43.4836 0.680887 43.0551 1.67404C41.6234 1.7721 40.4692 2.94797 40.4756 4.41174L40.4899 7.73817C40.1486 8.08981 39.952 8.5619 39.9542 9.06561L39.9589 10.1616C39.9627 11.0732 40.6066 11.8071 41.428 12.0087C41.6733 13.4999 42.4438 14.8629 43.7893 15.8641L43.7971 17.6794C42.1847 17.8934 39.3509 18.3507 37.9 19.0711C36.2 19.9149 35.1372 21.7073 35.1892 23.6403V27.4021H28.7931C28.7913 26.2834 28.7855 24.0131 28.7966 23.5697C28.8299 22.2156 28.316 20.9104 27.3872 19.9888C25.883 18.4957 23.111 18.0241 20.0671 17.646L20.0592 15.8304C21.3882 14.8242 22.1533 13.4589 22.3874 11.9554C23.2087 11.7468 23.8445 11.0062 23.8406 10.0964L23.8359 9.00065C23.8339 8.49669 23.6332 8.0262 23.2888 7.67751L23.2777 5.06642C23.2657 2.28197 20.9751 0 18.11 0H18.0875L13.724 0.0180864C12.6165 0.0226388 11.6219 0.680887 11.1935 1.67404C9.74902 1.77395 8.60774 2.96593 8.61399 4.41162L8.62824 7.73817C8.28702 8.08981 8.09041 8.5619 8.09266 9.06561L8.09728 10.1616C8.10116 11.0733 8.74485 11.8072 9.56629 12.0088C9.81114 13.4967 10.5793 14.8608 11.9275 15.8643L11.9353 17.6797C10.3297 17.8928 7.48133 18.3522 6.03832 19.0714C4.33846 19.915 3.27567 21.7073 3.32754 23.6402V27.4023H3.31979C1.49081 27.4023 0.00292969 28.8669 0.00292969 30.6674V45.8548C0.00292969 46.3645 0.422521 46.7776 0.940355 46.7776C1.45819 46.7776 1.87778 46.3645 1.87778 45.8548V30.6672C1.87778 29.8846 2.52473 29.2477 3.31979 29.2477H60.681C61.476 29.2477 62.123 29.8846 62.123 30.6672V33.3149C62.123 33.8246 62.5426 34.2376 63.0604 34.2376C63.5782 34.2376 63.9978 33.8246 63.9978 33.3149V30.6672C63.9978 28.8668 62.5098 27.4022 60.6808 27.4022ZM57.918 21.2886C58.4893 21.8554 58.805 22.6707 58.784 23.5252C58.7721 24.0037 58.7777 26.0161 58.78 27.4022H50.8319L50.1072 24.6513L50.3587 23.9209C50.3598 23.9178 50.3608 23.9147 50.3618 23.9116C51.3513 24.1118 52.3554 23.7001 52.9134 22.8914L54.9054 20.0052C56.1089 20.2673 57.1504 20.5273 57.918 21.2886ZM45.2928 21.9876C45.0198 22.2234 44.5992 22.173 44.3925 21.8783L42.8515 19.6827C43.1419 19.6365 43.442 19.5917 43.7508 19.5489L46.3083 21.1087C45.7414 21.5994 45.8378 21.516 45.2928 21.9876ZM47.3163 23.701L47.047 22.9268L47.8805 22.2056L48.7213 22.9251C48.6428 23.1545 48.5488 23.4281 48.4566 23.6962L47.3163 23.701ZM50.4623 21.9695L49.4435 21.0978L51.9908 19.5148C52.2995 19.555 52.5997 19.5972 52.8901 19.641L51.3624 21.8545C51.1581 22.1505 50.737 22.2046 50.4623 21.9695ZM50.0503 16.8445L50.0539 17.6901C50.055 17.9534 50.1145 18.2049 50.2207 18.4321L47.8723 19.8914L45.5117 18.4516C45.6158 18.2235 45.6732 17.9715 45.6719 17.7082L45.6683 16.8626C47.0739 17.3461 48.5868 17.3615 50.0503 16.8445ZM47.3755 25.5463L48.4049 25.542L48.895 27.4022H46.8903L47.3755 25.5463ZM43.2441 3.51295H43.2688C43.9373 3.51012 44.5364 3.08282 44.7596 2.44991C44.8827 2.10073 45.2178 1.86524 45.5935 1.86364L49.9571 1.84556H49.9714C51.7687 1.84556 53.2569 3.27143 53.2645 5.07405L53.2739 7.263C52.9646 7.30139 52.6198 7.36524 52.2964 7.47081L52.2897 6.39264C52.2837 5.00724 50.9606 3.81968 49.0238 4.45997C48.3836 4.67209 47.3878 4.7293 46.5826 4.47018C44.6279 3.84122 43.3145 5.06125 43.3202 6.43151L43.3268 7.51129C43.0084 7.4088 42.6699 7.34728 42.3629 7.31061L42.3504 4.40374C42.3484 3.91467 42.751 3.51492 43.2441 3.51295ZM43.2222 11.1174C43.2092 10.617 42.7933 10.2182 42.2853 10.2182H42.2813C41.869 10.2199 41.8817 10.2279 41.8536 10.2005C41.8338 10.1813 41.8337 10.1606 41.8337 10.1539L41.8293 9.11508C42.2754 9.14436 42.7546 9.22975 42.9351 9.34503C43.8839 9.95099 45.2106 9.2872 45.2054 8.11269L45.1952 6.42216C45.1946 6.27034 45.3194 6.14607 45.4755 6.14521L45.489 6.14508C45.662 6.14718 45.8343 6.17105 46.0004 6.22444C48.0226 6.87494 49.6007 6.12798 50.1332 6.12577C50.2695 6.11777 50.4143 6.23539 50.4149 6.40199L50.4253 8.09055C50.4303 9.22433 51.7102 9.92675 52.6986 9.30123C52.8847 9.18348 53.3665 9.09724 53.8231 9.06525C53.8279 10.1878 53.8372 10.122 53.808 10.151C53.7885 10.1705 53.7675 10.1706 53.7606 10.1706L53.3807 10.1722C52.8708 10.1744 52.4561 10.5772 52.4472 11.0791C52.4261 12.2883 51.9113 13.4115 51.0351 14.1606C49.1244 15.7936 46.5443 15.7716 44.661 14.1872C43.7782 13.4452 43.2538 12.3265 43.2222 11.1174ZM37.0637 23.6005C37.0276 22.3819 37.6827 21.1871 38.8804 20.655C39.3345 20.4537 40.0055 20.2526 40.8402 20.0637L42.8499 22.9272C43.4235 23.7444 44.4375 24.1337 45.4132 23.9271L45.6699 24.6651L44.9543 27.4022H37.0641V23.6274C37.0641 23.6184 37.064 23.6095 37.0637 23.6005ZM26.0563 21.2886C26.6277 21.8554 26.9434 22.6707 26.9224 23.5249C26.9105 24.0024 26.916 26.0189 26.9184 27.4022H18.9702L18.2455 24.6513L18.497 23.9209C18.4981 23.9178 18.4991 23.9147 18.5001 23.9116C19.4896 24.1118 20.4937 23.7001 21.0517 22.8914L23.0437 20.0052C24.2496 20.2678 25.2905 20.5287 26.0563 21.2886ZM13.431 21.9876C13.1595 22.2226 12.7385 22.1741 12.5309 21.8783L10.9899 19.6827C11.2803 19.6365 11.5804 19.5917 11.8892 19.5489L14.4466 21.1086C13.8728 21.6052 13.9747 21.5171 13.431 21.9876ZM15.4546 23.701L15.1853 22.9268L16.0189 22.2056L16.8597 22.9251C16.7812 23.1545 16.6872 23.4281 16.595 23.6962L15.4546 23.701ZM18.6006 21.9695L17.5818 21.0977L20.1289 19.5147C20.4378 19.5549 20.738 19.5971 21.0285 19.6409L19.5009 21.8543C19.2965 22.1505 18.8753 22.2046 18.6006 21.9695ZM18.1887 16.8445L18.1924 17.6901C18.1935 17.9533 18.253 18.2049 18.3591 18.4321L16.0108 19.8915L13.6501 18.4517C13.7543 18.2236 13.8116 17.9715 13.8104 17.7082L13.8068 16.8628C15.2122 17.3461 16.7252 17.3615 18.1887 16.8445ZM15.5138 25.5463L16.5432 25.542L17.0332 27.4022H15.0285L15.5138 25.5463ZM11.3823 3.51295H11.407C12.0755 3.51012 12.6747 3.08282 12.8979 2.44991C13.021 2.10073 13.3561 1.86524 13.7317 1.86364L18.0954 1.84556H18.1096C19.9037 1.84556 21.3952 3.26909 21.4028 5.07392L21.4122 7.263C21.1027 7.30139 20.7581 7.36524 20.4347 7.47081L20.428 6.39264C20.423 5.22194 19.4586 4.28021 18.2742 4.28021H18.2622C17.8879 4.28193 17.5178 4.34235 17.1622 4.45997C15.5274 5.00133 14.7209 4.28686 13.6162 4.29953L13.6017 4.29965C12.4149 4.30605 11.4534 5.26156 11.4585 6.43151L11.4651 7.51129C11.1467 7.4088 10.8083 7.34728 10.5013 7.31061L10.4888 4.40374C10.4867 3.91467 10.8893 3.51492 11.3823 3.51295ZM11.3606 11.1174C11.3476 10.617 10.9317 10.2182 10.4237 10.2182H10.4197C10.0073 10.2199 10.0199 10.2278 9.99201 10.2005C9.97226 10.1813 9.97213 10.1606 9.97213 10.1539L9.96776 9.11508C10.4138 9.14448 10.8929 9.22975 11.0734 9.34503C12.0211 9.95025 13.349 9.28831 13.3439 8.11269L13.3335 6.42216C13.3329 6.27034 13.4579 6.14607 13.614 6.14521L13.6275 6.14508C13.8012 6.14718 13.9727 6.17105 14.1387 6.22444C15.3176 6.60352 16.7263 6.55135 17.7598 6.20943C17.9251 6.15468 18.097 6.12651 18.2717 6.12577H18.2733C18.4261 6.12577 18.5528 6.24598 18.5534 6.40199L18.5638 8.09005C18.5664 8.78743 19.0744 9.3849 19.7716 9.51076C20.1402 9.5772 20.5185 9.50289 20.837 9.30123C21.0231 9.18348 21.5048 9.09724 21.9614 9.06525C21.9663 10.1878 21.9757 10.122 21.9464 10.151C21.9268 10.1705 21.9058 10.1706 21.8989 10.1706L21.5191 10.1722C21.0093 10.1744 20.5947 10.5771 20.5857 11.079C20.5644 12.2884 20.0496 13.4117 19.1735 14.1606C17.2745 15.7832 14.6936 15.781 12.7994 14.1872C11.9166 13.4452 11.3923 12.3265 11.3606 11.1174ZM5.20201 23.6005C5.16589 22.3817 5.82134 21.1873 7.01887 20.655C7.47296 20.4537 8.1439 20.2526 8.97859 20.0637L10.9883 22.9272C11.5606 23.7429 12.574 24.1341 13.5516 23.9271L13.8082 24.665L13.0926 27.4021H5.20239V23.6273C5.20239 23.6184 5.20226 23.6096 5.20201 23.6005Z" fill="#272727"/>
<path d="M60.6808 27.4022H60.6548C60.653 26.2957 60.6472 24.0172 60.6583 23.5698C60.6916 22.2158 60.1779 20.9106 59.2491 19.9888C57.7414 18.4936 54.966 18.0233 51.9288 17.646L51.921 15.8304C53.2523 14.8223 54.0156 13.4561 54.2492 11.9554C55.067 11.7476 55.7062 11.0095 55.7024 10.0965L55.6977 9.00028C55.6955 8.49657 55.4949 8.0262 55.1506 7.67751L55.1394 5.06642C55.1274 2.2896 52.8445 0 49.9717 0H49.9492L45.5857 0.0180864C44.4781 0.0226388 43.4836 0.680887 43.0551 1.67404C41.6234 1.7721 40.4692 2.94797 40.4756 4.41174L40.4899 7.73817C40.1486 8.08981 39.952 8.5619 39.9542 9.06561L39.9589 10.1616C39.9627 11.0732 40.6066 11.8071 41.428 12.0087C41.6733 13.4999 42.4438 14.8629 43.7893 15.8641L43.7971 17.6794C42.1847 17.8934 39.3509 18.3507 37.9 19.0711C36.2 19.9149 35.1372 21.7073 35.1892 23.6403V27.4021H28.7931C28.7913 26.2834 28.7855 24.0131 28.7966 23.5697C28.8299 22.2156 28.316 20.9104 27.3872 19.9888C25.883 18.4957 23.111 18.0241 20.0671 17.646L20.0592 15.8304C21.3882 14.8242 22.1533 13.4589 22.3874 11.9554C23.2087 11.7468 23.8445 11.0062 23.8406 10.0964L23.8359 9.00065C23.8339 8.49669 23.6332 8.0262 23.2888 7.67751L23.2777 5.06642C23.2657 2.28197 20.9751 0 18.11 0H18.0875L13.724 0.0180864C12.6165 0.0226388 11.6219 0.680887 11.1935 1.67404C9.74902 1.77395 8.60774 2.96593 8.61399 4.41162L8.62824 7.73817C8.28702 8.08981 8.09041 8.5619 8.09266 9.06561L8.09728 10.1616C8.10116 11.0733 8.74485 11.8072 9.56629 12.0088C9.81114 13.4967 10.5793 14.8608 11.9275 15.8643L11.9353 17.6797C10.3297 17.8928 7.48133 18.3522 6.03832 19.0714C4.33846 19.915 3.27567 21.7073 3.32754 23.6402V27.4023H3.31979C1.49081 27.4023 0.00292969 28.8669 0.00292969 30.6674V45.8548C0.00292969 46.3645 0.422521 46.7776 0.940355 46.7776C1.45819 46.7776 1.87778 46.3645 1.87778 45.8548V30.6672C1.87778 29.8846 2.52473 29.2477 3.31979 29.2477H60.681C61.476 29.2477 62.123 29.8846 62.123 30.6672V33.3149C62.123 33.8246 62.5426 34.2376 63.0604 34.2376C63.5782 34.2376 63.9978 33.8246 63.9978 33.3149V30.6672C63.9978 28.8668 62.5098 27.4022 60.6808 27.4022ZM57.918 21.2886C58.4893 21.8554 58.805 22.6707 58.784 23.5252C58.7721 24.0037 58.7777 26.0161 58.78 27.4022H50.8319L50.1072 24.6513L50.3587 23.9209C50.3598 23.9178 50.3608 23.9147 50.3618 23.9116C51.3513 24.1118 52.3554 23.7001 52.9134 22.8914L54.9054 20.0052C56.1089 20.2673 57.1504 20.5273 57.918 21.2886ZM45.2928 21.9876C45.0198 22.2234 44.5992 22.173 44.3925 21.8783L42.8515 19.6827C43.1419 19.6365 43.442 19.5917 43.7508 19.5489L46.3083 21.1087C45.7414 21.5994 45.8378 21.516 45.2928 21.9876ZM47.3163 23.701L47.047 22.9268L47.8805 22.2056L48.7213 22.9251C48.6428 23.1545 48.5488 23.4281 48.4566 23.6962L47.3163 23.701ZM50.4623 21.9695L49.4435 21.0978L51.9908 19.5148C52.2995 19.555 52.5997 19.5972 52.8901 19.641L51.3624 21.8545C51.1581 22.1505 50.737 22.2046 50.4623 21.9695ZM50.0503 16.8445L50.0539 17.6901C50.055 17.9534 50.1145 18.2049 50.2207 18.4321L47.8723 19.8914L45.5117 18.4516C45.6158 18.2235 45.6732 17.9715 45.6719 17.7082L45.6683 16.8626C47.0739 17.3461 48.5868 17.3615 50.0503 16.8445ZM47.3755 25.5463L48.4049 25.542L48.895 27.4022H46.8903L47.3755 25.5463ZM43.2441 3.51295H43.2688C43.9373 3.51012 44.5364 3.08282 44.7596 2.44991C44.8827 2.10073 45.2178 1.86524 45.5935 1.86364L49.9571 1.84556H49.9714C51.7687 1.84556 53.2569 3.27143 53.2645 5.07405L53.2739 7.263C52.9646 7.30139 52.6198 7.36524 52.2964 7.47081L52.2897 6.39264C52.2837 5.00724 50.9606 3.81968 49.0238 4.45997C48.3836 4.67209 47.3878 4.7293 46.5826 4.47018C44.6279 3.84122 43.3145 5.06125 43.3202 6.43151L43.3268 7.51129C43.0084 7.4088 42.6699 7.34728 42.3629 7.31061L42.3504 4.40374C42.3484 3.91467 42.751 3.51492 43.2441 3.51295ZM43.2222 11.1174C43.2092 10.617 42.7933 10.2182 42.2853 10.2182H42.2813C41.869 10.2199 41.8817 10.2279 41.8536 10.2005C41.8338 10.1813 41.8337 10.1606 41.8337 10.1539L41.8293 9.11508C42.2754 9.14436 42.7546 9.22975 42.9351 9.34503C43.8839 9.95099 45.2106 9.2872 45.2054 8.11269L45.1952 6.42216C45.1946 6.27034 45.3194 6.14607 45.4755 6.14521L45.489 6.14508C45.662 6.14718 45.8343 6.17105 46.0004 6.22444C48.0226 6.87494 49.6007 6.12798 50.1332 6.12577C50.2695 6.11777 50.4143 6.23539 50.4149 6.40199L50.4253 8.09055C50.4303 9.22433 51.7102 9.92675 52.6986 9.30123C52.8847 9.18348 53.3665 9.09724 53.8231 9.06525C53.8279 10.1878 53.8372 10.122 53.808 10.151C53.7885 10.1705 53.7675 10.1706 53.7606 10.1706L53.3807 10.1722C52.8708 10.1744 52.4561 10.5772 52.4472 11.0791C52.4261 12.2883 51.9113 13.4115 51.0351 14.1606C49.1244 15.7936 46.5443 15.7716 44.661 14.1872C43.7782 13.4452 43.2538 12.3265 43.2222 11.1174ZM37.0637 23.6005C37.0276 22.3819 37.6827 21.1871 38.8804 20.655C39.3345 20.4537 40.0055 20.2526 40.8402 20.0637L42.8499 22.9272C43.4235 23.7444 44.4375 24.1337 45.4132 23.9271L45.6699 24.6651L44.9543 27.4022H37.0641V23.6274C37.0641 23.6184 37.064 23.6095 37.0637 23.6005ZM26.0563 21.2886C26.6277 21.8554 26.9434 22.6707 26.9224 23.5249C26.9105 24.0024 26.916 26.0189 26.9184 27.4022H18.9702L18.2455 24.6513L18.497 23.9209C18.4981 23.9178 18.4991 23.9147 18.5001 23.9116C19.4896 24.1118 20.4937 23.7001 21.0517 22.8914L23.0437 20.0052C24.2496 20.2678 25.2905 20.5287 26.0563 21.2886ZM13.431 21.9876C13.1595 22.2226 12.7385 22.1741 12.5309 21.8783L10.9899 19.6827C11.2803 19.6365 11.5804 19.5917 11.8892 19.5489L14.4466 21.1086C13.8728 21.6052 13.9747 21.5171 13.431 21.9876ZM15.4546 23.701L15.1853 22.9268L16.0189 22.2056L16.8597 22.9251C16.7812 23.1545 16.6872 23.4281 16.595 23.6962L15.4546 23.701ZM18.6006 21.9695L17.5818 21.0977L20.1289 19.5147C20.4378 19.5549 20.738 19.5971 21.0285 19.6409L19.5009 21.8543C19.2965 22.1505 18.8753 22.2046 18.6006 21.9695ZM18.1887 16.8445L18.1924 17.6901C18.1935 17.9533 18.253 18.2049 18.3591 18.4321L16.0108 19.8915L13.6501 18.4517C13.7543 18.2236 13.8116 17.9715 13.8104 17.7082L13.8068 16.8628C15.2122 17.3461 16.7252 17.3615 18.1887 16.8445ZM15.5138 25.5463L16.5432 25.542L17.0332 27.4022H15.0285L15.5138 25.5463ZM11.3823 3.51295H11.407C12.0755 3.51012 12.6747 3.08282 12.8979 2.44991C13.021 2.10073 13.3561 1.86524 13.7317 1.86364L18.0954 1.84556H18.1096C19.9037 1.84556 21.3952 3.26909 21.4028 5.07392L21.4122 7.263C21.1027 7.30139 20.7581 7.36524 20.4347 7.47081L20.428 6.39264C20.423 5.22194 19.4586 4.28021 18.2742 4.28021H18.2622C17.8879 4.28193 17.5178 4.34235 17.1622 4.45997C15.5274 5.00133 14.7209 4.28686 13.6162 4.29953L13.6017 4.29965C12.4149 4.30605 11.4534 5.26156 11.4585 6.43151L11.4651 7.51129C11.1467 7.4088 10.8083 7.34728 10.5013 7.31061L10.4888 4.40374C10.4867 3.91467 10.8893 3.51492 11.3823 3.51295ZM11.3606 11.1174C11.3476 10.617 10.9317 10.2182 10.4237 10.2182H10.4197C10.0073 10.2199 10.0199 10.2278 9.99201 10.2005C9.97226 10.1813 9.97213 10.1606 9.97213 10.1539L9.96776 9.11508C10.4138 9.14448 10.8929 9.22975 11.0734 9.34503C12.0211 9.95025 13.349 9.28831 13.3439 8.11269L13.3335 6.42216C13.3329 6.27034 13.4579 6.14607 13.614 6.14521L13.6275 6.14508C13.8012 6.14718 13.9727 6.17105 14.1387 6.22444C15.3176 6.60352 16.7263 6.55135 17.7598 6.20943C17.9251 6.15468 18.097 6.12651 18.2717 6.12577H18.2733C18.4261 6.12577 18.5528 6.24598 18.5534 6.40199L18.5638 8.09005C18.5664 8.78743 19.0744 9.3849 19.7716 9.51076C20.1402 9.5772 20.5185 9.50289 20.837 9.30123C21.0231 9.18348 21.5048 9.09724 21.9614 9.06525C21.9663 10.1878 21.9757 10.122 21.9464 10.151C21.9268 10.1705 21.9058 10.1706 21.8989 10.1706L21.5191 10.1722C21.0093 10.1744 20.5947 10.5771 20.5857 11.079C20.5644 12.2884 20.0496 13.4117 19.1735 14.1606C17.2745 15.7832 14.6936 15.781 12.7994 14.1872C11.9166 13.4452 11.3923 12.3265 11.3606 11.1174ZM5.20201 23.6005C5.16589 22.3817 5.82134 21.1873 7.01887 20.655C7.47296 20.4537 8.1439 20.2526 8.97859 20.0637L10.9883 22.9272C11.5606 23.7429 12.574 24.1341 13.5516 23.9271L13.8082 24.665L13.0926 27.4021H5.20239V23.6273C5.20239 23.6184 5.20226 23.6096 5.20201 23.6005Z" fill="url(#paint1_linear)" fill-opacity="0.52" style="mix-blend-mode:color"/>
</g>
</g>
<defs>
<linearGradient id="paint0_linear" x1="63.9974" y1="37.1961" x2="6.6342" y2="72.1016" gradientUnits="userSpaceOnUse">
<stop stop-color="#F92020" stop-opacity="0.64"/>
<stop offset="1" stop-color="#2B66FF" stop-opacity="0.57"/>
</linearGradient>
<linearGradient id="paint1_linear" x1="63.9978" y1="9.62182" x2="-2.69504" y2="37.8056" gradientUnits="userSpaceOnUse">
<stop stop-color="#F92020" stop-opacity="0.64"/>
<stop offset="1" stop-color="#2B66FF" stop-opacity="0.57"/>
</linearGradient>
<clipPath id="clip0">
<rect width="64" height="63" fill="white"/>
</clipPath>
</defs>
</svg>
