<svg width="62" height="62" viewBox="0 0 62 62" fill="none" xmlns="http://www.w3.org/2000/svg">
<g opacity="0.87">
<path d="M49.9072 14.6051C50.3558 14.8642 50.913 14.8642 51.3617 14.6051L55.2927 12.3355C55.7413 12.0765 56.02 11.5939 56.02 11.076C56.02 10.5579 55.7413 10.0752 55.2927 9.81641L51.3617 7.54676C50.9131 7.28768 50.3559 7.28792 49.9072 7.54676C49.4586 7.80584 49.1799 8.28842 49.1799 8.80634V13.3455C49.1799 13.8634 49.4586 14.3461 49.9072 14.6051ZM50.9951 9.43111L53.844 11.076L50.9951 12.721V9.43111Z" fill="#272727"/>
<path d="M49.9072 14.6051C50.3558 14.8642 50.913 14.8642 51.3617 14.6051L55.2927 12.3355C55.7413 12.0765 56.02 11.5939 56.02 11.076C56.02 10.5579 55.7413 10.0752 55.2927 9.81641L51.3617 7.54676C50.9131 7.28768 50.3559 7.28792 49.9072 7.54676C49.4586 7.80584 49.1799 8.28842 49.1799 8.80634V13.3455C49.1799 13.8634 49.4586 14.3461 49.9072 14.6051ZM50.9951 9.43111L53.844 11.076L50.9951 12.721V9.43111Z" fill="url(#paint0_linear)" fill-opacity="0.52" style="mix-blend-mode:color"/>
<path d="M58.5721 21.6077H45.9645C44.6316 21.6077 43.5472 22.692 43.5472 24.0249V36.6326C43.5472 37.9656 44.6316 39.0499 45.9645 39.0499H58.5721C59.905 39.0499 60.9894 37.9656 60.9894 36.6326V24.0249C60.9894 22.692 59.905 21.6077 58.5721 21.6077ZM59.1742 36.6326C59.1742 36.9646 58.9042 37.2348 58.5721 37.2348H45.9645C45.6326 37.2348 45.3624 36.9647 45.3624 36.6326V24.0249C45.3624 23.693 45.6325 23.4228 45.9645 23.4228H58.5721C58.904 23.4228 59.1742 23.6929 59.1742 24.0249V36.6326Z" fill="#272727"/>
<path d="M58.5721 21.6077H45.9645C44.6316 21.6077 43.5472 22.692 43.5472 24.0249V36.6326C43.5472 37.9656 44.6316 39.0499 45.9645 39.0499H58.5721C59.905 39.0499 60.9894 37.9656 60.9894 36.6326V24.0249C60.9894 22.692 59.905 21.6077 58.5721 21.6077ZM59.1742 36.6326C59.1742 36.9646 58.9042 37.2348 58.5721 37.2348H45.9645C45.6326 37.2348 45.3624 36.9647 45.3624 36.6326V24.0249C45.3624 23.693 45.6325 23.4228 45.9645 23.4228H58.5721C58.904 23.4228 59.1742 23.6929 59.1742 24.0249V36.6326Z" fill="url(#paint1_linear)" fill-opacity="0.52" style="mix-blend-mode:color"/>
<path d="M52.2683 27.6367C50.0175 27.6367 48.1865 29.4678 48.1865 31.7185C48.1865 33.9694 50.0176 35.8004 52.2683 35.8004C54.5189 35.8004 56.35 33.9693 56.35 31.7185C56.35 29.4678 54.5189 27.6367 52.2683 27.6367ZM52.2683 33.9854C51.0185 33.9854 50.0017 32.9685 50.0017 31.7186C50.0017 30.4688 51.0185 29.452 52.2683 29.452C53.5181 29.452 54.5349 30.4688 54.5349 31.7186C54.5349 32.9684 53.5181 33.9854 52.2683 33.9854Z" fill="#272727"/>
<path d="M52.2683 27.6367C50.0175 27.6367 48.1865 29.4678 48.1865 31.7185C48.1865 33.9694 50.0176 35.8004 52.2683 35.8004C54.5189 35.8004 56.35 33.9693 56.35 31.7185C56.35 29.4678 54.5189 27.6367 52.2683 27.6367ZM52.2683 33.9854C51.0185 33.9854 50.0017 32.9685 50.0017 31.7186C50.0017 30.4688 51.0185 29.452 52.2683 29.452C53.5181 29.452 54.5349 30.4688 54.5349 31.7186C54.5349 32.9684 53.5181 33.9854 52.2683 33.9854Z" fill="url(#paint2_linear)" fill-opacity="0.52" style="mix-blend-mode:color"/>
<path d="M56.5717 24.8259C56.0704 24.8259 55.6642 25.2322 55.6642 25.7335V26.5222C55.6642 27.0236 56.0704 27.4298 56.5717 27.4298C57.0731 27.4298 57.4793 27.0236 57.4793 26.5222V25.7335C57.4793 25.2323 57.0731 24.8259 56.5717 24.8259Z" fill="#272727"/>
<path d="M56.5717 24.8259C56.0704 24.8259 55.6642 25.2322 55.6642 25.7335V26.5222C55.6642 27.0236 56.0704 27.4298 56.5717 27.4298C57.0731 27.4298 57.4793 27.0236 57.4793 26.5222V25.7335C57.4793 25.2323 57.0731 24.8259 56.5717 24.8259Z" fill="url(#paint3_linear)" fill-opacity="0.52" style="mix-blend-mode:color"/>
<path d="M51.1921 51.4195C51.119 51.4926 50.9998 51.4929 50.9267 51.4195L50.4275 50.9204C50.073 50.5661 49.4984 50.5661 49.144 50.9204C48.7896 51.2749 48.7896 51.8495 49.144 52.2039L49.6432 52.7031C50.4239 53.4838 51.6945 53.4837 52.4756 52.7031L55.072 50.1066C55.8526 49.3257 55.8526 48.0551 55.0719 47.2741L54.5727 46.7751C54.2179 46.4207 53.6432 46.4207 53.2893 46.7752C52.9349 47.1298 52.9349 47.7043 53.2894 48.0586L53.7885 48.5576C53.8615 48.6308 53.8615 48.75 53.7885 48.8231L51.1921 51.4195Z" fill="#272727"/>
<path d="M51.1921 51.4195C51.119 51.4926 50.9998 51.4929 50.9267 51.4195L50.4275 50.9204C50.073 50.5661 49.4984 50.5661 49.144 50.9204C48.7896 51.2749 48.7896 51.8495 49.144 52.2039L49.6432 52.7031C50.4239 53.4838 51.6945 53.4837 52.4756 52.7031L55.072 50.1066C55.8526 49.3257 55.8526 48.0551 55.0719 47.2741L54.5727 46.7751C54.2179 46.4207 53.6432 46.4207 53.2893 46.7752C52.9349 47.1298 52.9349 47.7043 53.2894 48.0586L53.7885 48.5576C53.8615 48.6308 53.8615 48.75 53.7885 48.8231L51.1921 51.4195Z" fill="url(#paint4_linear)" fill-opacity="0.52" style="mix-blend-mode:color"/>
<path d="M31.5203 14.7026C31.5202 14.7026 31.5202 14.7026 31.5203 14.7026C31.019 14.7026 30.6126 15.1089 30.6126 15.6101V16.083L25.3323 18.2793C25.3063 17.8013 24.9117 17.4213 24.4274 17.4213C24.4273 17.4213 24.4273 17.4213 24.4273 17.4213C23.926 17.4213 23.5197 17.8276 23.5197 18.3288V19.0332L19.4422 20.7293C13.0483 20.7286 15.9724 20.7289 9.21944 20.7283C9.2192 20.7283 9.21932 20.7283 9.21908 20.7283C7.74616 20.7283 6.54768 21.9268 6.54744 23.3998V23.6377L5.47736 23.6376V23.5799C5.47736 23.0785 5.07113 22.6722 4.56991 22.6722C4.56979 22.6722 4.56979 22.6722 4.56979 22.6722C4.06857 22.6722 3.66222 23.0784 3.66222 23.5796V23.7142C1.59502 24.0973 0.000242046 25.9109 2.75757e-08 28.1268C-0.000241991 30.3409 1.5926 32.1561 3.66125 32.54V32.6744C3.66125 33.1758 4.06748 33.5821 4.5687 33.5821H4.56882C5.07004 33.5821 5.47639 33.1759 5.47639 32.6747V32.6168L6.54647 32.6169V32.8549C6.54635 33.5684 6.82419 34.2394 7.3288 34.7442C7.8334 35.2489 8.5044 35.5269 9.21799 35.5269H9.46061L9.46049 38.4503C9.46049 38.9515 9.86672 39.3579 10.3681 39.3579C10.8693 39.3579 11.2756 38.9517 11.2756 38.4503L11.2758 35.527L15.6921 35.5273L15.6919 38.3963C15.6919 38.4385 15.6672 38.4772 15.6292 38.4948L14.3102 39.1128C13.6374 39.4279 13.2026 40.1115 13.2023 40.8548L13.202 44.7951C13.202 45.1747 12.8947 45.4822 12.5146 45.4822H11.9624C11.5825 45.4822 11.275 45.1748 11.275 44.7947L11.2753 42.4871C11.2753 41.9857 10.869 41.5794 10.3678 41.5794C10.3677 41.5794 10.3677 41.5794 10.3677 41.5794C9.86648 41.5794 9.46013 41.9856 9.46013 42.4868L9.45989 44.7945C9.45965 46.1776 10.5789 47.2971 11.9622 47.2973H12.5148C13.8977 47.2973 15.0171 46.1781 15.0171 44.7952L15.0175 40.8551C15.0175 40.8131 15.042 40.7745 15.0802 40.7568L16.3994 40.1386C17.0721 39.8234 17.5068 39.1397 17.507 38.3967L17.5072 35.5276L19.4404 35.5277L23.5179 37.2245V37.9288C23.5179 38.4301 23.9241 38.8365 24.4253 38.8365H24.4255C24.9099 38.8365 25.3045 38.4567 25.3305 37.9789L30.6103 40.176V40.6487C30.6103 41.15 31.0166 41.5564 31.5178 41.5564H31.5179C32.0191 41.5564 32.4255 41.1502 32.4255 40.6489L32.4256 39.5711C32.4256 39.571 32.4256 39.5709 32.4256 39.5707L32.4266 28.1296L32.4277 15.6102C32.4278 15.109 32.0214 14.7026 31.5203 14.7026ZM11.624 22.5437C12.0707 22.5437 15.0478 22.5439 15.3432 22.5439L15.3431 23.8348C15.3431 24.2056 15.043 24.5059 14.672 24.5059H14.6719C14.6719 24.5059 14.6719 24.5059 14.6718 24.5059L12.295 24.5058C11.9241 24.5058 11.6238 24.2057 11.6238 23.8345L11.624 22.5437ZM1.81514 28.1269C1.81514 26.9307 2.59431 25.9311 3.66186 25.5847L3.66137 30.6694C2.59383 30.3229 1.81489 29.3232 1.81514 28.1269ZM5.47651 30.8017L5.47699 25.4527H6.54696C6.54684 26.2689 6.54659 29.9625 6.54659 30.8017H5.47651ZM8.61234 33.4609C8.45067 33.2991 8.36161 33.0839 8.36161 32.8551C8.36185 30.5003 8.36222 25.7425 8.36246 23.4C8.36246 23.1711 8.45164 22.9561 8.61343 22.7943C8.77522 22.6325 8.99025 22.5434 9.21896 22.5434H9.21908H9.80888L9.80876 23.8342C9.80852 25.2053 10.9239 26.3207 12.295 26.321L14.6718 26.3211H14.6721C16.0463 26.3211 17.1584 25.209 17.1584 23.835L17.1585 22.544L18.7155 22.5441C18.7154 23.8957 18.7147 32.3843 18.7145 33.7124L9.21823 33.7116C8.98928 33.7117 8.77413 33.6227 8.61234 33.4609ZM20.5296 34.015C20.5297 32.6736 20.5305 23.594 20.5307 22.2424L23.5193 20.9992L23.518 35.2587L20.5296 34.015ZM25.3331 36.0139L25.3346 20.2441L30.6124 18.0489L30.6116 28.1264L30.6107 38.21L25.3331 36.0139Z" fill="#272727"/>
<path d="M31.5203 14.7026C31.5202 14.7026 31.5202 14.7026 31.5203 14.7026C31.019 14.7026 30.6126 15.1089 30.6126 15.6101V16.083L25.3323 18.2793C25.3063 17.8013 24.9117 17.4213 24.4274 17.4213C24.4273 17.4213 24.4273 17.4213 24.4273 17.4213C23.926 17.4213 23.5197 17.8276 23.5197 18.3288V19.0332L19.4422 20.7293C13.0483 20.7286 15.9724 20.7289 9.21944 20.7283C9.2192 20.7283 9.21932 20.7283 9.21908 20.7283C7.74616 20.7283 6.54768 21.9268 6.54744 23.3998V23.6377L5.47736 23.6376V23.5799C5.47736 23.0785 5.07113 22.6722 4.56991 22.6722C4.56979 22.6722 4.56979 22.6722 4.56979 22.6722C4.06857 22.6722 3.66222 23.0784 3.66222 23.5796V23.7142C1.59502 24.0973 0.000242046 25.9109 2.75757e-08 28.1268C-0.000241991 30.3409 1.5926 32.1561 3.66125 32.54V32.6744C3.66125 33.1758 4.06748 33.5821 4.5687 33.5821H4.56882C5.07004 33.5821 5.47639 33.1759 5.47639 32.6747V32.6168L6.54647 32.6169V32.8549C6.54635 33.5684 6.82419 34.2394 7.3288 34.7442C7.8334 35.2489 8.5044 35.5269 9.21799 35.5269H9.46061L9.46049 38.4503C9.46049 38.9515 9.86672 39.3579 10.3681 39.3579C10.8693 39.3579 11.2756 38.9517 11.2756 38.4503L11.2758 35.527L15.6921 35.5273L15.6919 38.3963C15.6919 38.4385 15.6672 38.4772 15.6292 38.4948L14.3102 39.1128C13.6374 39.4279 13.2026 40.1115 13.2023 40.8548L13.202 44.7951C13.202 45.1747 12.8947 45.4822 12.5146 45.4822H11.9624C11.5825 45.4822 11.275 45.1748 11.275 44.7947L11.2753 42.4871C11.2753 41.9857 10.869 41.5794 10.3678 41.5794C10.3677 41.5794 10.3677 41.5794 10.3677 41.5794C9.86648 41.5794 9.46013 41.9856 9.46013 42.4868L9.45989 44.7945C9.45965 46.1776 10.5789 47.2971 11.9622 47.2973H12.5148C13.8977 47.2973 15.0171 46.1781 15.0171 44.7952L15.0175 40.8551C15.0175 40.8131 15.042 40.7745 15.0802 40.7568L16.3994 40.1386C17.0721 39.8234 17.5068 39.1397 17.507 38.3967L17.5072 35.5276L19.4404 35.5277L23.5179 37.2245V37.9288C23.5179 38.4301 23.9241 38.8365 24.4253 38.8365H24.4255C24.9099 38.8365 25.3045 38.4567 25.3305 37.9789L30.6103 40.176V40.6487C30.6103 41.15 31.0166 41.5564 31.5178 41.5564H31.5179C32.0191 41.5564 32.4255 41.1502 32.4255 40.6489L32.4256 39.5711C32.4256 39.571 32.4256 39.5709 32.4256 39.5707L32.4266 28.1296L32.4277 15.6102C32.4278 15.109 32.0214 14.7026 31.5203 14.7026ZM11.624 22.5437C12.0707 22.5437 15.0478 22.5439 15.3432 22.5439L15.3431 23.8348C15.3431 24.2056 15.043 24.5059 14.672 24.5059H14.6719C14.6719 24.5059 14.6719 24.5059 14.6718 24.5059L12.295 24.5058C11.9241 24.5058 11.6238 24.2057 11.6238 23.8345L11.624 22.5437ZM1.81514 28.1269C1.81514 26.9307 2.59431 25.9311 3.66186 25.5847L3.66137 30.6694C2.59383 30.3229 1.81489 29.3232 1.81514 28.1269ZM5.47651 30.8017L5.47699 25.4527H6.54696C6.54684 26.2689 6.54659 29.9625 6.54659 30.8017H5.47651ZM8.61234 33.4609C8.45067 33.2991 8.36161 33.0839 8.36161 32.8551C8.36185 30.5003 8.36222 25.7425 8.36246 23.4C8.36246 23.1711 8.45164 22.9561 8.61343 22.7943C8.77522 22.6325 8.99025 22.5434 9.21896 22.5434H9.21908H9.80888L9.80876 23.8342C9.80852 25.2053 10.9239 26.3207 12.295 26.321L14.6718 26.3211H14.6721C16.0463 26.3211 17.1584 25.209 17.1584 23.835L17.1585 22.544L18.7155 22.5441C18.7154 23.8957 18.7147 32.3843 18.7145 33.7124L9.21823 33.7116C8.98928 33.7117 8.77413 33.6227 8.61234 33.4609ZM20.5296 34.015C20.5297 32.6736 20.5305 23.594 20.5307 22.2424L23.5193 20.9992L23.518 35.2587L20.5296 34.015ZM25.3331 36.0139L25.3346 20.2441L30.6124 18.0489L30.6116 28.1264L30.6107 38.21L25.3331 36.0139Z" fill="url(#paint5_linear)" fill-opacity="0.52" style="mix-blend-mode:color"/>
<path d="M39.7273 27.2195H36.0827C35.5814 27.2195 35.1752 27.6257 35.1752 28.1271C35.1752 28.6284 35.5814 29.0346 36.0827 29.0346H39.7273C40.2286 29.0346 40.6349 28.6284 40.6349 28.1271C40.6349 27.6257 40.2285 27.2195 39.7273 27.2195Z" fill="#272727"/>
<path d="M39.7273 27.2195H36.0827C35.5814 27.2195 35.1752 27.6257 35.1752 28.1271C35.1752 28.6284 35.5814 29.0346 36.0827 29.0346H39.7273C40.2286 29.0346 40.6349 28.6284 40.6349 28.1271C40.6349 27.6257 40.2285 27.2195 39.7273 27.2195Z" fill="url(#paint6_linear)" fill-opacity="0.52" style="mix-blend-mode:color"/>
<path d="M35.6311 20.4618L38.2081 17.8846C38.5626 17.5302 38.5626 16.9555 38.208 16.6012C37.8537 16.2469 37.279 16.2468 36.9246 16.6013L34.3476 19.1785C33.9932 19.5329 33.9932 20.1076 34.3477 20.4619C34.702 20.8162 35.2766 20.8163 35.6311 20.4618Z" fill="#272727"/>
<path d="M35.6311 20.4618L38.2081 17.8846C38.5626 17.5302 38.5626 16.9555 38.208 16.6012C37.8537 16.2469 37.279 16.2468 36.9246 16.6013L34.3476 19.1785C33.9932 19.5329 33.9932 20.1076 34.3477 20.4619C34.702 20.8162 35.2766 20.8163 35.6311 20.4618Z" fill="url(#paint7_linear)" fill-opacity="0.52" style="mix-blend-mode:color"/>
<path d="M35.5612 35.7633C35.2067 35.409 34.6321 35.409 34.2777 35.7633C33.9232 36.1179 33.9232 36.6924 34.2777 37.0468L36.8548 39.624C37.2095 39.9784 37.7839 39.9783 38.1383 39.624C38.4928 39.2694 38.4928 38.6949 38.1383 38.3404L35.5612 35.7633Z" fill="#272727"/>
<path d="M35.5612 35.7633C35.2067 35.409 34.6321 35.409 34.2777 35.7633C33.9232 36.1179 33.9232 36.6924 34.2777 37.0468L36.8548 39.624C37.2095 39.9784 37.7839 39.9783 38.1383 39.624C38.4928 39.2694 38.4928 38.6949 38.1383 38.3404L35.5612 35.7633Z" fill="url(#paint8_linear)" fill-opacity="0.52" style="mix-blend-mode:color"/>
<path d="M52.2684 41.2202C47.4825 41.2202 43.5889 45.1138 43.5889 49.8997C43.5889 51.2423 43.9024 52.5717 44.4984 53.7683L43.6198 57.0469C43.536 57.3602 43.6254 57.6943 43.8546 57.9236C44.084 58.1529 44.4183 58.2423 44.7313 58.1584L47.7941 57.3378C49.1429 58.1513 50.681 58.5792 52.2684 58.5792C54.2296 58.5792 56.0816 57.9388 57.6242 56.7273C58.0184 56.4176 58.087 55.8472 57.7774 55.453C57.4678 55.0588 56.8975 54.9906 56.5031 55.2998C55.2834 56.2577 53.8191 56.7641 52.2685 56.7641C50.9015 56.7641 49.5811 56.3631 48.45 55.6042C48.2324 55.4583 47.9625 55.4134 47.7095 55.4813L45.7801 55.9982L46.3435 53.8953C46.4044 53.6682 46.3747 53.4263 46.2607 53.2206C45.7004 52.2092 45.4041 51.0608 45.4041 49.8997C45.4041 46.1148 48.4834 43.0354 52.2685 43.0354C56.0535 43.0354 59.1329 46.1147 59.1329 49.8997C59.1329 50.8982 58.9216 51.863 58.5049 52.7673C58.2952 53.2225 58.4942 53.7616 58.9494 53.9713C59.4045 54.1811 59.9437 53.9821 60.1535 53.5269C60.6807 52.3826 60.948 51.1622 60.948 49.8996C60.9478 45.1137 57.0542 41.2202 52.2684 41.2202Z" fill="#272727"/>
<path d="M52.2684 41.2202C47.4825 41.2202 43.5889 45.1138 43.5889 49.8997C43.5889 51.2423 43.9024 52.5717 44.4984 53.7683L43.6198 57.0469C43.536 57.3602 43.6254 57.6943 43.8546 57.9236C44.084 58.1529 44.4183 58.2423 44.7313 58.1584L47.7941 57.3378C49.1429 58.1513 50.681 58.5792 52.2684 58.5792C54.2296 58.5792 56.0816 57.9388 57.6242 56.7273C58.0184 56.4176 58.087 55.8472 57.7774 55.453C57.4678 55.0588 56.8975 54.9906 56.5031 55.2998C55.2834 56.2577 53.8191 56.7641 52.2685 56.7641C50.9015 56.7641 49.5811 56.3631 48.45 55.6042C48.2324 55.4583 47.9625 55.4134 47.7095 55.4813L45.7801 55.9982L46.3435 53.8953C46.4044 53.6682 46.3747 53.4263 46.2607 53.2206C45.7004 52.2092 45.4041 51.0608 45.4041 49.8997C45.4041 46.1148 48.4834 43.0354 52.2685 43.0354C56.0535 43.0354 59.1329 46.1147 59.1329 49.8997C59.1329 50.8982 58.9216 51.863 58.5049 52.7673C58.2952 53.2225 58.4942 53.7616 58.9494 53.9713C59.4045 54.1811 59.9437 53.9821 60.1535 53.5269C60.6807 52.3826 60.948 51.1622 60.948 49.8996C60.9478 45.1137 57.0542 41.2202 52.2684 41.2202Z" fill="url(#paint9_linear)" fill-opacity="0.52" style="mix-blend-mode:color"/>
<path d="M59.3059 3.42102H50.9084C50.4071 3.42102 50.0008 3.82725 50.0008 4.32859C50.0008 4.82993 50.4071 5.23616 50.9084 5.23616H59.3059C59.7906 5.23616 60.185 5.63052 60.185 6.11517V16.0368C60.185 16.5215 59.7906 16.9158 59.3059 16.9158H45.2306C44.7459 16.9158 44.3515 16.5215 44.3515 16.0368V6.11504C44.3515 5.6304 44.7459 5.23603 45.2306 5.23603H47.2797C47.781 5.23603 48.1873 4.82981 48.1873 4.32847C48.1873 3.82713 47.781 3.4209 47.2797 3.4209H45.2306C43.7451 3.4209 42.5364 4.62942 42.5364 6.11504V16.0367C42.5364 17.5222 43.745 18.7308 45.2306 18.7308H59.3058C60.7913 18.7308 62 17.5223 62 16.0367V6.11504C62 4.62954 60.7915 3.42102 59.3059 3.42102Z" fill="#272727"/>
<path d="M59.3059 3.42102H50.9084C50.4071 3.42102 50.0008 3.82725 50.0008 4.32859C50.0008 4.82993 50.4071 5.23616 50.9084 5.23616H59.3059C59.7906 5.23616 60.185 5.63052 60.185 6.11517V16.0368C60.185 16.5215 59.7906 16.9158 59.3059 16.9158H45.2306C44.7459 16.9158 44.3515 16.5215 44.3515 16.0368V6.11504C44.3515 5.6304 44.7459 5.23603 45.2306 5.23603H47.2797C47.781 5.23603 48.1873 4.82981 48.1873 4.32847C48.1873 3.82713 47.781 3.4209 47.2797 3.4209H45.2306C43.7451 3.4209 42.5364 4.62942 42.5364 6.11504V16.0367C42.5364 17.5222 43.745 18.7308 45.2306 18.7308H59.3058C60.7913 18.7308 62 17.5223 62 16.0367V6.11504C62 4.62954 60.7915 3.42102 59.3059 3.42102Z" fill="url(#paint10_linear)" fill-opacity="0.52" style="mix-blend-mode:color"/>
</g>
<defs>
<linearGradient id="paint0_linear" x1="56.02" y1="8.88431" x2="48.2445" y2="11.0904" gradientUnits="userSpaceOnUse">
<stop stop-color="#F92020" stop-opacity="0.64"/>
<stop offset="1" stop-color="#2B66FF" stop-opacity="0.57"/>
</linearGradient>
<linearGradient id="paint1_linear" x1="60.9894" y1="25.1954" x2="41.4318" y2="31.2366" gradientUnits="userSpaceOnUse">
<stop stop-color="#F92020" stop-opacity="0.64"/>
<stop offset="1" stop-color="#2B66FF" stop-opacity="0.57"/>
</linearGradient>
<linearGradient id="paint2_linear" x1="56.35" y1="29.3159" x2="47.1964" y2="32.1434" gradientUnits="userSpaceOnUse">
<stop stop-color="#F92020" stop-opacity="0.64"/>
<stop offset="1" stop-color="#2B66FF" stop-opacity="0.57"/>
</linearGradient>
<linearGradient id="paint3_linear" x1="57.4793" y1="25.3615" x2="55.3486" y2="25.8203" gradientUnits="userSpaceOnUse">
<stop stop-color="#F92020" stop-opacity="0.64"/>
<stop offset="1" stop-color="#2B66FF" stop-opacity="0.57"/>
</linearGradient>
<linearGradient id="paint4_linear" x1="55.6575" y1="47.9037" x2="48.056" y2="50.2518" gradientUnits="userSpaceOnUse">
<stop stop-color="#F92020" stop-opacity="0.64"/>
<stop offset="1" stop-color="#2B66FF" stop-opacity="0.57"/>
</linearGradient>
<linearGradient id="paint5_linear" x1="32.4277" y1="21.4071" x2="-3.96529" y2="32.5912" gradientUnits="userSpaceOnUse">
<stop stop-color="#F92020" stop-opacity="0.64"/>
<stop offset="1" stop-color="#2B66FF" stop-opacity="0.57"/>
</linearGradient>
<linearGradient id="paint6_linear" x1="40.6349" y1="27.5928" x2="37.0358" y2="30.9368" gradientUnits="userSpaceOnUse">
<stop stop-color="#F92020" stop-opacity="0.64"/>
<stop offset="1" stop-color="#2B66FF" stop-opacity="0.57"/>
</linearGradient>
<linearGradient id="paint7_linear" x1="38.474" y1="17.2389" x2="33.5491" y2="18.7602" gradientUnits="userSpaceOnUse">
<stop stop-color="#F92020" stop-opacity="0.64"/>
<stop offset="1" stop-color="#2B66FF" stop-opacity="0.57"/>
</linearGradient>
<linearGradient id="paint8_linear" x1="38.4042" y1="36.401" x2="33.4792" y2="37.9224" gradientUnits="userSpaceOnUse">
<stop stop-color="#F92020" stop-opacity="0.64"/>
<stop offset="1" stop-color="#2B66FF" stop-opacity="0.57"/>
</linearGradient>
<linearGradient id="paint9_linear" x1="60.948" y1="44.7908" x2="41.4835" y2="50.8034" gradientUnits="userSpaceOnUse">
<stop stop-color="#F92020" stop-opacity="0.64"/>
<stop offset="1" stop-color="#2B66FF" stop-opacity="0.57"/>
</linearGradient>
<linearGradient id="paint10_linear" x1="62" y1="6.57005" x2="41.2875" y2="14.7038" gradientUnits="userSpaceOnUse">
<stop stop-color="#F92020" stop-opacity="0.64"/>
<stop offset="1" stop-color="#2B66FF" stop-opacity="0.57"/>
</linearGradient>
</defs>
</svg>
