<svg width="58" height="56" viewBox="0 0 58 56" fill="none" xmlns="http://www.w3.org/2000/svg">
<g opacity="0.87">
<path d="M57.5521 49.7672L56.7247 48.9682C56.3929 48.6477 55.8549 48.6478 55.5232 48.9681C55.1913 49.2884 55.1913 49.8078 55.5231 50.1281L56.2303 50.811L52.6259 54.2912L46.4981 48.3748L50.1026 44.8946L52.9614 47.6548C53.2933 47.975 53.8311 47.975 54.1629 47.6548C54.4947 47.3343 54.4947 46.815 54.1629 46.4947L50.7049 43.156C50.7043 43.1554 50.7039 43.1549 50.7034 43.1543L48.3004 40.8342C48.2997 40.8335 48.299 40.8331 48.2984 40.8324L46.1776 38.7848C45.8888 38.5058 45.5047 38.3521 45.0961 38.3521C44.6875 38.3521 44.3035 38.5058 44.0148 38.7846L43.8946 38.9007L40.8544 35.9647C43.0274 33.3434 44.5968 30.237 45.3585 26.843H51.3448C51.8142 26.843 52.1945 26.4759 52.1945 26.0227C52.1945 25.5696 51.8142 25.2024 51.3448 25.2024H45.6597C45.7346 24.6807 45.7905 24.1533 45.8269 23.6207H55.3945C55.8639 23.6207 56.2441 23.2536 56.2441 22.8004C56.2441 22.3473 55.8639 21.9801 55.3945 21.9801H45.8771C45.873 21.4493 45.8502 20.9219 45.8086 20.3983H51.345C51.8143 20.3983 52.1946 20.0312 52.1946 19.578C52.1946 19.1249 51.8143 18.7577 51.345 18.7577H45.6145C45.0209 14.9866 43.4335 11.459 40.9355 8.41203C40.6443 8.05689 40.1101 7.99695 39.742 8.27794C39.3742 8.55914 39.312 9.07506 39.6031 9.43031C42.5971 13.0822 44.1797 17.4801 44.1797 22.1484C44.1797 33.4565 34.6514 42.6562 22.9395 42.6562C11.2275 42.6562 1.69922 33.4565 1.69922 22.1484C1.69922 10.8404 11.2275 1.64062 22.9395 1.64062C28.234 1.64062 33.3059 3.53259 37.2207 6.96795C37.5678 7.27289 38.1054 7.24795 38.4208 6.91272C38.7364 6.57748 38.7108 6.05861 38.3635 5.75389C34.1354 2.04345 28.6577 0 22.9395 0C10.2906 0 0 9.93573 0 22.1484C0 32.9308 8.0219 41.9367 18.6057 43.8986V49.4329C18.6057 49.886 18.9859 50.2532 19.4553 50.2532C19.9246 50.2532 20.3049 49.886 20.3049 49.4329V44.15C20.8456 44.2099 21.3918 44.2519 21.9431 44.2748V53.2906C21.9431 53.7437 22.3234 54.1109 22.7928 54.1109C23.2621 54.1109 23.6424 53.7437 23.6424 53.2906V44.2855C24.1934 44.2694 24.7398 44.2355 25.2806 44.1824V49.4329C25.2806 49.886 25.6609 50.2532 26.1302 50.2532C26.5996 50.2532 26.9799 49.886 26.9799 49.4329V43.9528C30.8159 43.2919 34.3239 41.7064 37.2493 39.4457L40.2902 42.3811L40.1701 42.497C39.8811 42.7759 39.722 43.1467 39.722 43.5412C39.722 43.9357 39.8811 44.3065 40.1699 44.5853L42.2914 46.6336C42.2919 46.634 42.2922 46.6344 42.2926 46.6349L44.6957 48.955C44.6961 48.9555 44.6968 48.9559 44.6973 48.9565L51.5443 55.5673C51.8332 55.8464 52.2172 56 52.6258 56C53.0344 56 53.4183 55.8464 53.7073 55.5675L57.5521 51.8553C57.841 51.5763 58 51.2057 58 50.8111C58 50.4166 57.841 50.0458 57.5521 49.7672ZM39.7414 37.2103L42.6929 40.0606L41.4914 41.2206L38.5393 38.3709C38.9546 37.9985 39.3556 37.6113 39.7414 37.2103ZM45.2965 47.2148L44.095 46.0547L47.6995 42.5745L48.9009 43.7347L45.2965 47.2148ZM45.0962 40.0609L46.498 41.4143L42.8935 44.8945L41.4917 43.5411L45.0962 40.0609Z" fill="#272727"/>
<path d="M57.5521 49.7672L56.7247 48.9682C56.3929 48.6477 55.8549 48.6478 55.5232 48.9681C55.1913 49.2884 55.1913 49.8078 55.5231 50.1281L56.2303 50.811L52.6259 54.2912L46.4981 48.3748L50.1026 44.8946L52.9614 47.6548C53.2933 47.975 53.8311 47.975 54.1629 47.6548C54.4947 47.3343 54.4947 46.815 54.1629 46.4947L50.7049 43.156C50.7043 43.1554 50.7039 43.1549 50.7034 43.1543L48.3004 40.8342C48.2997 40.8335 48.299 40.8331 48.2984 40.8324L46.1776 38.7848C45.8888 38.5058 45.5047 38.3521 45.0961 38.3521C44.6875 38.3521 44.3035 38.5058 44.0148 38.7846L43.8946 38.9007L40.8544 35.9647C43.0274 33.3434 44.5968 30.237 45.3585 26.843H51.3448C51.8142 26.843 52.1945 26.4759 52.1945 26.0227C52.1945 25.5696 51.8142 25.2024 51.3448 25.2024H45.6597C45.7346 24.6807 45.7905 24.1533 45.8269 23.6207H55.3945C55.8639 23.6207 56.2441 23.2536 56.2441 22.8004C56.2441 22.3473 55.8639 21.9801 55.3945 21.9801H45.8771C45.873 21.4493 45.8502 20.9219 45.8086 20.3983H51.345C51.8143 20.3983 52.1946 20.0312 52.1946 19.578C52.1946 19.1249 51.8143 18.7577 51.345 18.7577H45.6145C45.0209 14.9866 43.4335 11.459 40.9355 8.41203C40.6443 8.05689 40.1101 7.99695 39.742 8.27794C39.3742 8.55914 39.312 9.07506 39.6031 9.43031C42.5971 13.0822 44.1797 17.4801 44.1797 22.1484C44.1797 33.4565 34.6514 42.6562 22.9395 42.6562C11.2275 42.6562 1.69922 33.4565 1.69922 22.1484C1.69922 10.8404 11.2275 1.64062 22.9395 1.64062C28.234 1.64062 33.3059 3.53259 37.2207 6.96795C37.5678 7.27289 38.1054 7.24795 38.4208 6.91272C38.7364 6.57748 38.7108 6.05861 38.3635 5.75389C34.1354 2.04345 28.6577 0 22.9395 0C10.2906 0 0 9.93573 0 22.1484C0 32.9308 8.0219 41.9367 18.6057 43.8986V49.4329C18.6057 49.886 18.9859 50.2532 19.4553 50.2532C19.9246 50.2532 20.3049 49.886 20.3049 49.4329V44.15C20.8456 44.2099 21.3918 44.2519 21.9431 44.2748V53.2906C21.9431 53.7437 22.3234 54.1109 22.7928 54.1109C23.2621 54.1109 23.6424 53.7437 23.6424 53.2906V44.2855C24.1934 44.2694 24.7398 44.2355 25.2806 44.1824V49.4329C25.2806 49.886 25.6609 50.2532 26.1302 50.2532C26.5996 50.2532 26.9799 49.886 26.9799 49.4329V43.9528C30.8159 43.2919 34.3239 41.7064 37.2493 39.4457L40.2902 42.3811L40.1701 42.497C39.8811 42.7759 39.722 43.1467 39.722 43.5412C39.722 43.9357 39.8811 44.3065 40.1699 44.5853L42.2914 46.6336C42.2919 46.634 42.2922 46.6344 42.2926 46.6349L44.6957 48.955C44.6961 48.9555 44.6968 48.9559 44.6973 48.9565L51.5443 55.5673C51.8332 55.8464 52.2172 56 52.6258 56C53.0344 56 53.4183 55.8464 53.7073 55.5675L57.5521 51.8553C57.841 51.5763 58 51.2057 58 50.8111C58 50.4166 57.841 50.0458 57.5521 49.7672ZM39.7414 37.2103L42.6929 40.0606L41.4914 41.2206L38.5393 38.3709C38.9546 37.9985 39.3556 37.6113 39.7414 37.2103ZM45.2965 47.2148L44.095 46.0547L47.6995 42.5745L48.9009 43.7347L45.2965 47.2148ZM45.0962 40.0609L46.498 41.4143L42.8935 44.8945L41.4917 43.5411L45.0962 40.0609Z" fill="url(#paint0_linear)" fill-opacity="0.52" style="mix-blend-mode:color"/>
<path d="M11.1079 37.1647C14.5107 39.6343 18.5986 40.966 22.9394 41.0156C33.7144 41.0156 42.4805 32.5519 42.4805 22.1484C42.4805 11.745 33.7144 3.28125 22.9394 3.28125C17.7395 3.28125 12.8486 5.24639 9.16795 8.81464C5.50285 12.3677 3.45393 17.1 3.39842 22.1397C3.34745 26.7793 5.09345 31.2387 8.31472 34.6965C8.62851 35.0333 9.16569 35.0608 9.51459 34.7578C9.8635 34.4549 9.89193 33.9361 9.57814 33.5993C6.64235 30.448 5.05108 26.3844 5.09764 22.1572C5.14828 17.5478 7.02139 13.2205 10.3719 9.97248C13.7314 6.71552 18.1945 4.92188 22.9394 4.92188C32.7775 4.92188 40.7812 12.6497 40.7812 22.1484C40.7812 31.6472 32.7775 39.375 22.9495 39.3751C18.9825 39.3296 15.2408 38.1117 12.1288 35.8533C11.7539 35.5809 11.2211 35.6541 10.9392 36.0162C10.6571 36.3783 10.7327 36.8926 11.1079 37.1647Z" fill="#272727"/>
<path d="M11.1079 37.1647C14.5107 39.6343 18.5986 40.966 22.9394 41.0156C33.7144 41.0156 42.4805 32.5519 42.4805 22.1484C42.4805 11.745 33.7144 3.28125 22.9394 3.28125C17.7395 3.28125 12.8486 5.24639 9.16795 8.81464C5.50285 12.3677 3.45393 17.1 3.39842 22.1397C3.34745 26.7793 5.09345 31.2387 8.31472 34.6965C8.62851 35.0333 9.16569 35.0608 9.51459 34.7578C9.8635 34.4549 9.89193 33.9361 9.57814 33.5993C6.64235 30.448 5.05108 26.3844 5.09764 22.1572C5.14828 17.5478 7.02139 13.2205 10.3719 9.97248C13.7314 6.71552 18.1945 4.92188 22.9394 4.92188C32.7775 4.92188 40.7812 12.6497 40.7812 22.1484C40.7812 31.6472 32.7775 39.375 22.9495 39.3751C18.9825 39.3296 15.2408 38.1117 12.1288 35.8533C11.7539 35.5809 11.2211 35.6541 10.9392 36.0162C10.6571 36.3783 10.7327 36.8926 11.1079 37.1647Z" fill="url(#paint1_linear)" fill-opacity="0.52" style="mix-blend-mode:color"/>
<path d="M26.168 7.49219H20.2774C19.5591 7.49219 18.9746 8.05645 18.9746 8.75V11.6484H13.4805C12.7622 11.6484 12.1778 12.2127 12.1778 12.9062V21.7109H11.0406C10.5713 21.7109 10.191 22.0781 10.191 22.5312C10.191 22.9844 10.5713 23.3516 11.0406 23.3516H35.4047C35.8741 23.3516 36.2543 22.9844 36.2543 22.5312C36.2543 22.0781 35.8741 21.7109 35.4047 21.7109H34.2676V17.0625C34.2676 16.369 33.6832 15.8047 32.9649 15.8047H27.4707V8.75C27.4707 8.05645 26.8863 7.49219 26.168 7.49219ZM13.877 13.2891H18.9746V21.7109H13.877V13.2891ZM20.6739 9.13281H25.7715V21.7109H20.6739V9.13281ZM32.5684 17.4453V21.7109H27.4707V17.4453H32.5684Z" fill="#272727"/>
<path d="M26.168 7.49219H20.2774C19.5591 7.49219 18.9746 8.05645 18.9746 8.75V11.6484H13.4805C12.7622 11.6484 12.1778 12.2127 12.1778 12.9062V21.7109H11.0406C10.5713 21.7109 10.191 22.0781 10.191 22.5312C10.191 22.9844 10.5713 23.3516 11.0406 23.3516H35.4047C35.8741 23.3516 36.2543 22.9844 36.2543 22.5312C36.2543 22.0781 35.8741 21.7109 35.4047 21.7109H34.2676V17.0625C34.2676 16.369 33.6832 15.8047 32.9649 15.8047H27.4707V8.75C27.4707 8.05645 26.8863 7.49219 26.168 7.49219ZM13.877 13.2891H18.9746V21.7109H13.877V13.2891ZM20.6739 9.13281H25.7715V21.7109H20.6739V9.13281ZM32.5684 17.4453V21.7109H27.4707V17.4453H32.5684Z" fill="url(#paint2_linear)" fill-opacity="0.52" style="mix-blend-mode:color"/>
<path d="M32.7383 30.3027H28.7384L26.9214 25.818C26.7929 25.5012 26.4782 25.2961 26.1226 25.2965C25.7701 25.2996 25.4561 25.5125 25.3335 25.8317L22.8504 32.2967L21.1149 27.5473C21.0039 27.2433 20.7187 27.0302 20.3858 27.0029C20.0535 26.9751 19.7347 27.1389 19.5718 27.4202L17.9052 30.3026H13.9159C13.4466 30.3026 13.0663 30.6698 13.0663 31.1229C13.0663 31.5761 13.4466 31.9432 13.9159 31.9432H18.4039C18.7118 31.9432 18.9957 31.7823 19.1457 31.5228L20.1384 29.8061L22.0292 34.9807C22.1483 35.3065 22.4658 35.5253 22.8237 35.5281H22.8306C23.1855 35.5281 23.5035 35.3148 23.627 34.9929L26.1513 28.4208L27.3671 31.4218C27.4946 31.7363 27.8085 31.9433 28.1583 31.9433H32.7383C33.2076 31.9433 33.5879 31.5762 33.5879 31.123C33.5879 30.6699 33.2076 30.3027 32.7383 30.3027Z" fill="#272727"/>
<path d="M32.7383 30.3027H28.7384L26.9214 25.818C26.7929 25.5012 26.4782 25.2961 26.1226 25.2965C25.7701 25.2996 25.4561 25.5125 25.3335 25.8317L22.8504 32.2967L21.1149 27.5473C21.0039 27.2433 20.7187 27.0302 20.3858 27.0029C20.0535 26.9751 19.7347 27.1389 19.5718 27.4202L17.9052 30.3026H13.9159C13.4466 30.3026 13.0663 30.6698 13.0663 31.1229C13.0663 31.5761 13.4466 31.9432 13.9159 31.9432H18.4039C18.7118 31.9432 18.9957 31.7823 19.1457 31.5228L20.1384 29.8061L22.0292 34.9807C22.1483 35.3065 22.4658 35.5253 22.8237 35.5281H22.8306C23.1855 35.5281 23.5035 35.3148 23.627 34.9929L26.1513 28.4208L27.3671 31.4218C27.4946 31.7363 27.8085 31.9433 28.1583 31.9433H32.7383C33.2076 31.9433 33.5879 31.5762 33.5879 31.123C33.5879 30.6699 33.2076 30.3027 32.7383 30.3027Z" fill="url(#paint3_linear)" fill-opacity="0.52" style="mix-blend-mode:color"/>
</g>
<defs>
<linearGradient id="paint0_linear" x1="58" y1="11.5188" x2="-6.62509" y2="32.1942" gradientUnits="userSpaceOnUse">
<stop stop-color="#F92020" stop-opacity="0.64"/>
<stop offset="1" stop-color="#2B66FF" stop-opacity="0.57"/>
</linearGradient>
<linearGradient id="paint1_linear" x1="42.4805" y1="11.0429" x2="-1.06673" y2="24.9753" gradientUnits="userSpaceOnUse">
<stop stop-color="#F92020" stop-opacity="0.64"/>
<stop offset="1" stop-color="#2B66FF" stop-opacity="0.57"/>
</linearGradient>
<linearGradient id="paint2_linear" x1="36.2543" y1="10.7543" x2="10.8009" y2="23.6756" gradientUnits="userSpaceOnUse">
<stop stop-color="#F92020" stop-opacity="0.64"/>
<stop offset="1" stop-color="#2B66FF" stop-opacity="0.57"/>
</linearGradient>
<linearGradient id="paint3_linear" x1="33.5879" y1="27.4011" x2="15.3734" y2="38.686" gradientUnits="userSpaceOnUse">
<stop stop-color="#F92020" stop-opacity="0.64"/>
<stop offset="1" stop-color="#2B66FF" stop-opacity="0.57"/>
</linearGradient>
</defs>
</svg>
