<svg width="63" height="63" viewBox="0 0 63 63" fill="none" xmlns="http://www.w3.org/2000/svg">
<g opacity="0.87">
<path d="M55.3176 0H26.9331C23.1428 0 20.0593 3.09719 20.0593 6.90401V12.9286C20.0593 14.1218 21.905 14.1218 21.905 12.9286V6.90401C21.9049 4.11482 24.1605 1.84576 26.9331 1.84576H55.3177C58.0903 1.84576 60.3459 4.11482 60.3459 6.90401V22.4341C60.3459 25.2233 58.0903 27.4924 55.3177 27.4924L35.114 27.4873C34.8298 27.4873 34.5757 27.616 34.4065 27.8181L29.8934 32.3551V28.4151C29.8934 28.4143 29.8932 28.4134 29.8932 28.4125C29.8932 28.4117 29.8934 28.4108 29.8934 28.41C29.8934 27.9002 29.4803 27.4871 28.9705 27.4871H26.7354C24.0544 27.3821 21.905 25.1562 21.905 22.4339V17.8328C21.905 16.6395 20.0593 16.6395 20.0593 17.8328V22.4339C20.0593 24.4277 20.9061 26.2257 22.2562 27.4871H7.68209C3.89176 27.4871 0.808105 30.5843 0.808105 34.3911V49.9212C0.808105 53.7281 3.89188 56.8252 7.68209 56.8252H27.5021L33.3751 62.7294C33.9601 63.3176 34.9522 62.8745 34.9522 62.0786V56.8252H36.0667C39.857 56.8252 42.9406 53.728 42.9406 49.9212V43.6201C42.9406 42.4269 41.0948 42.4269 41.0948 43.6201V49.9212C41.0948 52.7104 38.8391 54.9794 36.0667 54.9794H34.0293C33.5195 54.9794 33.1065 55.3925 33.1065 55.9023V59.8423L28.5402 55.2515C28.367 55.0774 28.1315 54.9794 27.8859 54.9794H7.68209C4.90951 54.9794 2.65387 52.7104 2.65387 49.9212V34.3914C2.65387 31.6023 4.90951 29.3332 7.68209 29.3332L28.0475 29.3382V34.5916C28.0475 35.3875 29.0396 35.8306 29.6246 35.2425L35.4977 29.3382H36.2644C38.9455 29.4432 41.0948 31.6691 41.0948 34.3914V38.5829C41.0948 39.7761 42.9406 39.7761 42.9406 38.5829V34.3914C42.9406 32.3977 42.0937 30.5996 40.7436 29.3382H55.3175C59.1078 29.3382 62.1915 26.2411 62.1915 22.4342V6.90401C62.1917 3.09719 59.1079 0 55.3176 0V0Z" fill="#272727"/>
<path d="M55.3176 0H26.9331C23.1428 0 20.0593 3.09719 20.0593 6.90401V12.9286C20.0593 14.1218 21.905 14.1218 21.905 12.9286V6.90401C21.9049 4.11482 24.1605 1.84576 26.9331 1.84576H55.3177C58.0903 1.84576 60.3459 4.11482 60.3459 6.90401V22.4341C60.3459 25.2233 58.0903 27.4924 55.3177 27.4924L35.114 27.4873C34.8298 27.4873 34.5757 27.616 34.4065 27.8181L29.8934 32.3551V28.4151C29.8934 28.4143 29.8932 28.4134 29.8932 28.4125C29.8932 28.4117 29.8934 28.4108 29.8934 28.41C29.8934 27.9002 29.4803 27.4871 28.9705 27.4871H26.7354C24.0544 27.3821 21.905 25.1562 21.905 22.4339V17.8328C21.905 16.6395 20.0593 16.6395 20.0593 17.8328V22.4339C20.0593 24.4277 20.9061 26.2257 22.2562 27.4871H7.68209C3.89176 27.4871 0.808105 30.5843 0.808105 34.3911V49.9212C0.808105 53.7281 3.89188 56.8252 7.68209 56.8252H27.5021L33.3751 62.7294C33.9601 63.3176 34.9522 62.8745 34.9522 62.0786V56.8252H36.0667C39.857 56.8252 42.9406 53.728 42.9406 49.9212V43.6201C42.9406 42.4269 41.0948 42.4269 41.0948 43.6201V49.9212C41.0948 52.7104 38.8391 54.9794 36.0667 54.9794H34.0293C33.5195 54.9794 33.1065 55.3925 33.1065 55.9023V59.8423L28.5402 55.2515C28.367 55.0774 28.1315 54.9794 27.8859 54.9794H7.68209C4.90951 54.9794 2.65387 52.7104 2.65387 49.9212V34.3914C2.65387 31.6023 4.90951 29.3332 7.68209 29.3332L28.0475 29.3382V34.5916C28.0475 35.3875 29.0396 35.8306 29.6246 35.2425L35.4977 29.3382H36.2644C38.9455 29.4432 41.0948 31.6691 41.0948 34.3914V38.5829C41.0948 39.7761 42.9406 39.7761 42.9406 38.5829V34.3914C42.9406 32.3977 42.0937 30.5996 40.7436 29.3382H55.3175C59.1078 29.3382 62.1915 26.2411 62.1915 22.4342V6.90401C62.1917 3.09719 59.1079 0 55.3176 0V0Z" fill="url(#paint0_linear)" fill-opacity="0.52" style="mix-blend-mode:color"/>
<path d="M6.89944 23.6286C7.40924 23.6286 7.82232 23.2156 7.82232 22.7058C7.82232 19.4752 10.1739 16.787 13.2485 16.2723L12.3791 17.1154C11.5077 17.9605 12.7535 19.1763 13.6642 18.4404L16.2611 15.9216C16.635 15.48 16.635 15.0383 16.2611 14.5966L13.6642 12.0777C12.8075 11.247 11.5225 12.572 12.3791 13.4027L13.3958 14.3888C9.22867 14.8519 5.97656 18.4043 5.97656 22.7058C5.97656 23.2156 6.38964 23.6286 6.89944 23.6286Z" fill="#272727"/>
<path d="M6.89944 23.6286C7.40924 23.6286 7.82232 23.2156 7.82232 22.7058C7.82232 19.4752 10.1739 16.787 13.2485 16.2723L12.3791 17.1154C11.5077 17.9605 12.7535 19.1763 13.6642 18.4404L16.2611 15.9216C16.635 15.48 16.635 15.0383 16.2611 14.5966L13.6642 12.0777C12.8075 11.247 11.5225 12.572 12.3791 13.4027L13.3958 14.3888C9.22867 14.8519 5.97656 18.4043 5.97656 22.7058C5.97656 23.2156 6.38964 23.6286 6.89944 23.6286Z" fill="url(#paint1_linear)" fill-opacity="0.52" style="mix-blend-mode:color"/>
<path d="M56.0882 32.7322C55.5784 32.7322 55.1654 33.1453 55.1654 33.6551C55.1654 36.8856 52.8139 39.5737 49.7392 40.0884L50.6084 39.2454C51.465 38.4147 50.18 37.0897 49.3234 37.9204L46.7264 40.4391C46.3526 40.8807 46.3526 41.3224 46.7264 41.7641L49.3234 44.283C50.1771 45.111 51.4669 43.7905 50.6084 42.9579L49.5918 41.9719C53.7589 41.5089 57.011 37.9565 57.011 33.6552C57.0111 33.1453 56.598 32.7322 56.0882 32.7322Z" fill="#272727"/>
<path d="M56.0882 32.7322C55.5784 32.7322 55.1654 33.1453 55.1654 33.6551C55.1654 36.8856 52.8139 39.5737 49.7392 40.0884L50.6084 39.2454C51.465 38.4147 50.18 37.0897 49.3234 37.9204L46.7264 40.4391C46.3526 40.8807 46.3526 41.3224 46.7264 41.7641L49.3234 44.283C50.1771 45.111 51.4669 43.7905 50.6084 42.9579L49.5918 41.9719C53.7589 41.5089 57.011 37.9565 57.011 33.6552C57.0111 33.1453 56.598 32.7322 56.0882 32.7322Z" fill="url(#paint2_linear)" fill-opacity="0.52" style="mix-blend-mode:color"/>
<path d="M41.1255 5.44482C40.6157 5.44482 40.2027 5.85791 40.2027 6.3677V8.8457H34.9467C33.7535 8.8457 33.7535 10.6915 34.9467 10.6915H37.2263C37.3449 12.0885 37.8611 14.802 39.9532 17.7746C38.7775 19.1836 37.1557 20.6647 34.919 22.0425C33.9298 22.6521 34.8827 24.2322 35.887 23.614C38.1406 22.2257 39.8415 20.7361 41.1257 19.2659C42.4098 20.7361 44.1108 22.2257 46.3643 23.614C47.348 24.2194 48.3459 22.667 47.3323 22.0425C45.0956 20.6647 43.4738 19.1836 42.2981 17.7746C44.3902 14.802 44.9064 12.0883 45.025 10.6915H47.3047C48.4979 10.6915 48.4979 8.8457 47.3047 8.8457H42.0485V6.3677C42.0484 5.85791 41.6352 5.44482 41.1255 5.44482ZM42.3142 13.9299C42.0369 14.6004 41.6534 15.3655 41.1255 16.184C40.5977 15.3655 40.2142 14.6004 39.9369 13.9299C39.3767 12.5756 39.1646 11.4272 39.0855 10.6915H43.1655C43.0865 11.4272 42.8743 12.5756 42.3142 13.9299Z" fill="#272727"/>
<path d="M41.1255 5.44482C40.6157 5.44482 40.2027 5.85791 40.2027 6.3677V8.8457H34.9467C33.7535 8.8457 33.7535 10.6915 34.9467 10.6915H37.2263C37.3449 12.0885 37.8611 14.802 39.9532 17.7746C38.7775 19.1836 37.1557 20.6647 34.919 22.0425C33.9298 22.6521 34.8827 24.2322 35.887 23.614C38.1406 22.2257 39.8415 20.7361 41.1257 19.2659C42.4098 20.7361 44.1108 22.2257 46.3643 23.614C47.348 24.2194 48.3459 22.667 47.3323 22.0425C45.0956 20.6647 43.4738 19.1836 42.2981 17.7746C44.3902 14.802 44.9064 12.0883 45.025 10.6915H47.3047C48.4979 10.6915 48.4979 8.8457 47.3047 8.8457H42.0485V6.3677C42.0484 5.85791 41.6352 5.44482 41.1255 5.44482ZM42.3142 13.9299C42.0369 14.6004 41.6534 15.3655 41.1255 16.184C40.5977 15.3655 40.2142 14.6004 39.9369 13.9299C39.3767 12.5756 39.1646 11.4272 39.0855 10.6915H43.1655C43.0865 11.4272 42.8743 12.5756 42.3142 13.9299Z" fill="url(#paint3_linear)" fill-opacity="0.52" style="mix-blend-mode:color"/>
<path d="M21.7646 32.238C21.399 32.238 21.0027 32.5308 20.8898 32.8671L15.3608 49.329C14.9808 50.4601 16.7307 51.0479 17.1104 49.9166L18.7357 45.0778H24.9486L26.6421 49.9271C27.0282 51.0326 28.7781 50.4452 28.3847 49.3186L22.6359 32.8566C22.5063 32.486 22.1567 32.238 21.7646 32.238ZM19.3555 43.2321L21.7816 36.0089L24.304 43.2321H19.3555Z" fill="#272727"/>
<path d="M21.7646 32.238C21.399 32.238 21.0027 32.5308 20.8898 32.8671L15.3608 49.329C14.9808 50.4601 16.7307 51.0479 17.1104 49.9166L18.7357 45.0778H24.9486L26.6421 49.9271C27.0282 51.0326 28.7781 50.4452 28.3847 49.3186L22.6359 32.8566C22.5063 32.486 22.1567 32.238 21.7646 32.238ZM19.3555 43.2321L21.7816 36.0089L24.304 43.2321H19.3555Z" fill="url(#paint4_linear)" fill-opacity="0.52" style="mix-blend-mode:color"/>
</g>
<defs>
<linearGradient id="paint0_linear" x1="62.1915" y1="12.9586" x2="-6.94159" y2="33.7657" gradientUnits="userSpaceOnUse">
<stop stop-color="#F92020" stop-opacity="0.64"/>
<stop offset="1" stop-color="#2B66FF" stop-opacity="0.57"/>
</linearGradient>
<linearGradient id="paint1_linear" x1="16.5415" y1="14.2444" x2="4.48483" y2="17.5748" gradientUnits="userSpaceOnUse">
<stop stop-color="#F92020" stop-opacity="0.64"/>
<stop offset="1" stop-color="#2B66FF" stop-opacity="0.57"/>
</linearGradient>
<linearGradient id="paint2_linear" x1="57.011" y1="35.1621" x2="44.9545" y2="38.4927" gradientUnits="userSpaceOnUse">
<stop stop-color="#F92020" stop-opacity="0.64"/>
<stop offset="1" stop-color="#2B66FF" stop-opacity="0.57"/>
</linearGradient>
<linearGradient id="paint3_linear" x1="48.1996" y1="9.21108" x2="31.7588" y2="13.1351" gradientUnits="userSpaceOnUse">
<stop stop-color="#F92020" stop-opacity="0.64"/>
<stop offset="1" stop-color="#2B66FF" stop-opacity="0.57"/>
</linearGradient>
<linearGradient id="paint4_linear" x1="28.4419" y1="35.9998" x2="13.0656" y2="39.4111" gradientUnits="userSpaceOnUse">
<stop stop-color="#F92020" stop-opacity="0.64"/>
<stop offset="1" stop-color="#2B66FF" stop-opacity="0.57"/>
</linearGradient>
</defs>
</svg>
