<svg width="65" height="65" viewBox="0 0 65 65" fill="none" xmlns="http://www.w3.org/2000/svg">
<g opacity="0.87">
<path d="M2.03125 57.8906V21.3281H4.0625V57.8906C4.06344 58.6984 4.38475 59.4729 4.95595 60.0441C5.52714 60.6152 6.30158 60.9366 7.10938 60.9375H24.375V62.9688H7.10938C5.76304 62.9672 4.47227 62.4317 3.52027 61.4797C2.56826 60.5277 2.03276 59.237 2.03125 57.8906ZM4.0625 17.2656C4.06344 16.4578 4.38475 15.6834 4.95595 15.1122C5.52714 14.541 6.30158 14.2197 7.10938 14.2188H10.5442L11.2792 15.6886C11.3635 15.8573 11.4932 15.9992 11.6536 16.0983C11.814 16.1975 11.9989 16.25 12.1875 16.25H22.3438C22.5324 16.25 22.7172 16.1975 22.8777 16.0983C23.0381 15.9992 23.1677 15.8573 23.2521 15.6886L23.987 14.2188H25.3906V12.1875H7.10938C5.76304 12.189 4.47227 12.7245 3.52027 13.6765C2.56826 14.6285 2.03276 15.9193 2.03125 17.2656V19.2969H4.0625V17.2656ZM40.625 62.9688V48.2272C40.6276 47.2932 40.4449 46.3679 40.0875 45.505C39.7302 44.6421 39.2052 43.8586 38.543 43.1999L32.5 37.1569V34.5312H30.4688V44.2669L27.9657 41.7638C27.2353 41.0405 26.2482 40.636 25.2203 40.6385C24.1924 40.6411 23.2073 41.0505 22.4805 41.7774C21.7537 42.5042 21.3442 43.4893 21.3417 44.5172C21.3391 45.5451 21.7437 46.5322 22.4669 47.2626L26.1866 50.9823L26.1155 51.1244C25.2442 52.8555 24.8148 54.7753 24.8655 56.7127C24.9162 58.65 25.4456 60.5447 26.4062 62.2279V62.9688H28.4375V61.9531C28.4374 61.7691 28.3874 61.5885 28.2928 61.4306C27.4429 60.0224 26.964 58.4216 26.9008 56.778C26.8377 55.1344 27.1924 53.5016 27.9318 52.0324L28.3302 51.2355C28.4255 51.0448 28.4584 50.829 28.4243 50.6185C28.3901 50.4081 28.2906 50.2138 28.1398 50.0631L23.9032 45.8263C23.555 45.478 23.3593 45.0057 23.3593 44.5132C23.3593 44.0207 23.555 43.5484 23.9032 43.2001C24.2515 42.8519 24.7238 42.6562 25.2163 42.6562C25.7088 42.6562 26.1811 42.8519 26.5294 43.2001L33.8131 50.4838L35.2494 49.0475L32.5 46.298V40.03L37.1064 44.6367C37.5794 45.1071 37.9545 45.6666 38.2098 46.2829C38.4651 46.8993 38.5956 47.5601 38.5938 48.2272V62.9688H40.625ZM8.125 32.6747V28.2628C7.69587 28.1115 7.30609 27.8659 6.9843 27.5442C6.66252 27.2225 6.41689 26.8328 6.26548 26.4037C6.11407 25.9746 6.06071 25.517 6.10933 25.0646C6.15795 24.6122 6.30731 24.1764 6.54644 23.7893C6.78557 23.4021 7.10839 23.0735 7.49119 22.8275C7.87399 22.5815 8.30704 22.4244 8.75852 22.3677C9.21001 22.311 9.66846 22.3562 10.1002 22.4999C10.5319 22.6436 10.926 22.8823 11.2534 23.1983L14.2429 21.7044C14.1886 21.2754 14.2262 20.8398 14.3533 20.4264C14.4803 20.0131 14.6939 19.6315 14.9799 19.3071C15.2658 18.9827 15.6175 18.7229 16.0116 18.5449C16.4057 18.367 16.8332 18.2749 17.2656 18.2749C17.6981 18.2749 18.1255 18.367 18.5196 18.5449C18.9137 18.7229 19.2654 18.9827 19.5514 19.3071C19.8373 19.6315 20.0509 20.0131 20.178 20.4264C20.305 20.8398 20.3427 21.2754 20.2884 21.7044L23.2777 23.1981C23.4551 23.026 23.6528 22.8762 23.8664 22.752L24.8836 24.5102C24.6896 24.6218 24.5379 24.7943 24.452 25.0009C24.3661 25.2076 24.3509 25.4368 24.4087 25.653C24.4666 25.8692 24.5942 26.0602 24.7717 26.1964C24.9493 26.3327 25.1668 26.4064 25.3906 26.4062V28.4375C24.7015 28.438 24.0328 28.2037 23.4947 27.7732L20.2395 29.8078C20.3368 30.2431 20.3368 30.6944 20.2395 31.1297L23.4947 33.1643C23.7589 32.9534 24.0564 32.7879 24.375 32.6747V30.4688H26.4062V32.6747C26.8354 32.826 27.2252 33.0716 27.5469 33.3933C27.8687 33.715 28.1144 34.1047 28.2658 34.5338C28.4172 34.9629 28.4705 35.4205 28.4219 35.8729C28.3733 36.3253 28.2239 36.7611 27.9848 37.1482C27.7457 37.5354 27.4229 37.864 27.0401 38.11C26.6573 38.356 26.2242 38.5131 25.7727 38.5698C25.3212 38.6265 24.8628 38.5813 24.4311 38.4376C23.9993 38.2939 23.6053 38.0552 23.2779 37.7392L20.2884 39.2331C20.3427 39.6621 20.305 40.0977 20.178 40.5111C20.0509 40.9244 19.8373 41.306 19.5514 41.6304C19.2654 41.9548 18.9137 42.2146 18.5196 42.3926C18.1255 42.5705 17.6981 42.6626 17.2656 42.6626C16.8332 42.6626 16.4057 42.5705 16.0116 42.3926C15.6175 42.2146 15.2658 41.9548 14.9799 41.6304C14.6939 41.306 14.4803 40.9244 14.3533 40.5111C14.2262 40.0977 14.1886 39.6621 14.2429 39.2331L11.2534 37.7392C10.9259 38.0549 10.5319 38.2932 10.1003 38.4367C9.66875 38.5802 9.21049 38.6252 8.75923 38.5684C8.30796 38.5116 7.87515 38.3545 7.49256 38.1085C7.10996 37.8626 6.78731 37.534 6.54829 37.1471C6.30927 36.7601 6.15994 36.3246 6.11128 35.8724C6.06262 35.4201 6.11585 34.9628 6.26707 34.5338C6.4183 34.1049 6.66367 33.7152 6.98517 33.3935C7.30667 33.0718 7.69615 32.8262 8.125 32.6747ZM24.375 35.5469C24.375 35.7477 24.4346 35.9441 24.5462 36.1111C24.6578 36.2781 24.8164 36.4083 25.002 36.4852C25.1875 36.5621 25.3918 36.5822 25.5888 36.543C25.7858 36.5038 25.9667 36.4071 26.1088 36.265C26.2508 36.123 26.3475 35.942 26.3867 35.745C26.4259 35.548 26.4058 35.3438 26.3289 35.1582C26.2521 34.9726 26.1219 34.814 25.9549 34.7024C25.7879 34.5908 25.5915 34.5312 25.3906 34.5312C25.1214 34.5316 24.8632 34.6387 24.6728 34.8291C24.4824 35.0195 24.3753 35.2776 24.375 35.5469ZM15.1529 37.417C15.466 37.1148 15.84 36.883 16.25 36.7372V33.3409C15.9314 33.2277 15.6339 33.0622 15.3697 32.8513L12.1145 34.886C12.191 35.2262 12.2075 35.5772 12.1634 35.9232L15.1529 37.417ZM18.2812 39.6094C18.2812 39.4085 18.2217 39.2121 18.1101 39.0451C17.9985 38.8781 17.8399 38.7479 17.6543 38.6711C17.4687 38.5942 17.2645 38.5741 17.0675 38.6133C16.8705 38.6525 16.6895 38.7492 16.5475 38.8912C16.4054 39.0333 16.3087 39.2142 16.2695 39.4112C16.2303 39.6082 16.2504 39.8125 16.3273 39.998C16.4042 40.1836 16.5344 40.3422 16.7014 40.4538C16.8684 40.5654 17.0648 40.625 17.2656 40.625C17.5349 40.6247 17.793 40.5176 17.9834 40.3272C18.1738 40.1368 18.2809 39.8786 18.2812 39.6094ZM17.2656 31.4844C17.4665 31.4844 17.6629 31.4248 17.8299 31.3132C17.9969 31.2016 18.1271 31.043 18.2039 30.8574C18.2808 30.6718 18.3009 30.4676 18.2617 30.2706C18.2225 30.0736 18.1258 29.8926 17.9838 29.7506C17.8417 29.6086 17.6608 29.5118 17.4638 29.4726C17.2668 29.4335 17.0625 29.4536 16.877 29.5304C16.6914 29.6073 16.5328 29.7375 16.4212 29.9045C16.3096 30.0715 16.25 30.2679 16.25 30.4688C16.2503 30.738 16.3574 30.9962 16.5478 31.1866C16.7382 31.377 16.9964 31.4841 17.2656 31.4844ZM19.1615 32.8513C18.8973 33.0622 18.5998 33.2277 18.2812 33.3409V36.7372C18.6912 36.883 19.0653 37.1148 19.3784 37.417L22.3679 35.9232C22.3237 35.5772 22.3403 35.2262 22.4167 34.886L19.1615 32.8513ZM19.3784 23.5202C19.0653 23.8225 18.6912 24.0544 18.2812 24.2003V27.5966C18.5998 27.7098 18.8973 27.8753 19.1615 28.0862L22.4167 26.0515C22.3402 25.7113 22.3237 25.3603 22.368 25.0143L19.3784 23.5202ZM16.25 21.3281C16.25 21.529 16.3096 21.7254 16.4212 21.8924C16.5328 22.0594 16.6914 22.1896 16.877 22.2664C17.0625 22.3433 17.2668 22.3634 17.4638 22.3242C17.6608 22.285 17.8417 22.1883 17.9838 22.0463C18.1258 21.9042 18.2225 21.7233 18.2617 21.5263C18.3009 21.3293 18.2808 21.125 18.2039 20.9395C18.1271 20.7539 17.9969 20.5953 17.8299 20.4837C17.6629 20.3721 17.4665 20.3125 17.2656 20.3125C16.9964 20.3128 16.7382 20.4199 16.5478 20.6103C16.3574 20.8007 16.2503 21.0589 16.25 21.3281ZM12.1875 25.3906C12.1873 25.6129 12.1629 25.8346 12.1145 26.0515L15.3697 28.0862C15.6339 27.8753 15.9314 27.7098 16.25 27.5966V24.2003C15.84 24.0545 15.466 23.8227 15.1529 23.5205L12.1634 25.0143C12.1792 25.1391 12.1872 25.2648 12.1875 25.3906ZM11.0365 27.7732C10.7723 27.9841 10.4748 28.1496 10.1562 28.2628V32.6747C10.4748 32.7879 10.7723 32.9534 11.0365 33.1643L14.2917 31.1297C14.1944 30.6944 14.1944 30.2431 14.2917 29.8078L11.0365 27.7732ZM8.125 25.3906C8.125 25.5915 8.18457 25.7879 8.29616 25.9549C8.40776 26.1219 8.56638 26.2521 8.75196 26.3289C8.93754 26.4058 9.14175 26.4259 9.33876 26.3867C9.53578 26.3475 9.71674 26.2508 9.85878 26.1088C10.0008 25.9667 10.0975 25.7858 10.1367 25.5888C10.1759 25.3918 10.1558 25.1875 10.0789 25.002C10.0021 24.8164 9.87189 24.6578 9.70488 24.5462C9.53786 24.4346 9.3415 24.375 9.14062 24.375C8.87136 24.3753 8.6132 24.4824 8.4228 24.6728C8.2324 24.8632 8.1253 25.1214 8.125 25.3906ZM8.125 35.5469C8.125 35.7477 8.18457 35.9441 8.29616 36.1111C8.40776 36.2781 8.56638 36.4083 8.75196 36.4852C8.93754 36.5621 9.14175 36.5822 9.33876 36.543C9.53578 36.5038 9.71674 36.4071 9.85878 36.265C10.0008 36.123 10.0975 35.942 10.1367 35.745C10.1759 35.548 10.1558 35.3438 10.0789 35.1582C10.0021 34.9726 9.87189 34.814 9.70488 34.7024C9.53786 34.5908 9.3415 34.5312 9.14062 34.5312C8.87136 34.5316 8.6132 34.6387 8.4228 34.8291C8.2324 35.0195 8.1253 35.2776 8.125 35.5469ZM22.3438 56.875H12.1875V58.9062H22.3438V56.875ZM7.10938 44.6875V46.7188H9.14062V44.6875H7.10938ZM11.1719 44.6875V46.7188H19.2969V44.6875H11.1719ZM7.10938 50.7812H21.3281V48.75H7.10938V50.7812ZM13.2031 52.8125H7.10938V54.8438H13.2031V52.8125ZM22.3438 52.8125H15.2344V54.8438H22.3438V52.8125ZM62.9688 20.3125V7.10938C62.9672 5.76304 62.4317 4.47227 61.4797 3.52027C60.5277 2.56826 59.237 2.03276 57.8906 2.03125H32.5C31.1537 2.03276 29.8629 2.56826 28.9109 3.52027C27.9589 4.47227 27.4234 5.76304 27.4219 7.10938V27.4219C27.4234 28.7682 27.9589 30.059 28.9109 31.011C29.8629 31.963 31.1537 32.4985 32.5 32.5H35.3236L34.5509 36.3633C34.5129 36.5534 34.5301 36.7505 34.6005 36.9311C34.6708 37.1118 34.7914 37.2685 34.948 37.3828C35.1046 37.4971 35.2907 37.5642 35.4842 37.5762C35.6777 37.5881 35.8706 37.5444 36.0401 37.4503L44.9507 32.5H57.8906C59.237 32.4985 60.5277 31.963 61.4797 31.011C62.4317 30.059 62.9672 28.7682 62.9688 27.4219V22.3438H60.9375V27.4219C60.9366 28.2297 60.6152 29.0041 60.0441 29.5753C59.4729 30.1465 58.6984 30.4678 57.8906 30.4688H44.6875C44.5149 30.4688 44.3452 30.5128 44.1943 30.5966L36.9734 34.6083L37.5584 31.6838C37.588 31.5364 37.5844 31.3844 37.548 31.2385C37.5116 31.0927 37.4434 30.9568 37.3481 30.8405C37.2528 30.7243 37.1329 30.6307 36.9971 30.5664C36.8612 30.5021 36.7128 30.4687 36.5625 30.4688H32.5C31.6922 30.4678 30.9178 30.1465 30.3466 29.5753C29.7754 29.0041 29.4541 28.2297 29.4531 27.4219V7.10938C29.4541 6.30158 29.7754 5.52714 30.3466 4.95595C30.9178 4.38475 31.6922 4.06344 32.5 4.0625H57.8906C58.6984 4.06344 59.4729 4.38475 60.0441 4.95595C60.6152 5.52714 60.9366 6.30158 60.9375 7.10938V20.3125H62.9688ZM58.9062 22.3438H57.8906V7.10938H55.8594V22.3438H53.8281V13.2031H51.7969V22.3438H49.7656V14.2188H47.7344V22.3438H45.7031V17.2656H43.6719V22.3438H41.6406V16.25H39.6094V22.3438H37.5781V19.2969H35.5469V22.3438H33.5156V7.10938H31.4844V23.3594C31.4844 23.6287 31.5914 23.8871 31.7818 24.0775C31.9723 24.268 32.2306 24.375 32.5 24.375H58.9062V22.3438ZM42.3588 9.43808C42.1928 9.27203 41.9744 9.16864 41.7407 9.14549C41.507 9.12234 41.2726 9.18088 41.0772 9.31112L34.9835 13.3736L36.1103 15.0636L41.5111 11.4631L43.9693 13.9213C44.1393 14.0913 44.3641 14.1954 44.6037 14.2153C44.8432 14.2351 45.0821 14.1693 45.2777 14.0296L50.0773 10.6019L50.3396 10.9639C50.4338 11.0939 50.5574 11.1997 50.7004 11.2726C50.8434 11.3455 51.0016 11.3835 51.1621 11.3835C51.1875 11.3835 51.2129 11.3825 51.2383 11.3807C51.4113 11.3676 51.5781 11.3104 51.7228 11.2145C51.8674 11.1186 51.9851 10.9872 52.0645 10.8329L53.5033 8.03994C53.5871 7.87718 53.6253 7.69479 53.6139 7.51208C53.6026 7.32936 53.5421 7.15311 53.4388 7.00197C53.3355 6.85083 53.1933 6.73041 53.0271 6.65347C52.861 6.57653 52.6772 6.54592 52.4951 6.56487L49.279 6.90333C49.1019 6.92198 48.9327 6.98689 48.7886 7.09156C48.6445 7.19622 48.5304 7.33695 48.4578 7.49962C48.3853 7.6623 48.3568 7.8412 48.3752 8.01837C48.3936 8.19555 48.4583 8.36476 48.5627 8.50903L48.8865 8.95629L44.7978 11.8762L42.3588 9.43808ZM31.4844 28.4375H33.5156V26.4062H31.4844V28.4375ZM37.5781 28.4375V26.4062H35.5469V28.4375H37.5781ZM41.6406 28.4375V26.4062H39.6094V28.4375H41.6406ZM45.7031 28.4375V26.4062H43.6719V28.4375H45.7031ZM49.7656 28.4375V26.4062H47.7344V28.4375H49.7656ZM53.8281 28.4375V26.4062H51.7969V28.4375H53.8281ZM57.8906 28.4375V26.4062H55.8594V28.4375H57.8906Z" fill="#272727"/>
<path d="M2.03125 57.8906V21.3281H4.0625V57.8906C4.06344 58.6984 4.38475 59.4729 4.95595 60.0441C5.52714 60.6152 6.30158 60.9366 7.10938 60.9375H24.375V62.9688H7.10938C5.76304 62.9672 4.47227 62.4317 3.52027 61.4797C2.56826 60.5277 2.03276 59.237 2.03125 57.8906ZM4.0625 17.2656C4.06344 16.4578 4.38475 15.6834 4.95595 15.1122C5.52714 14.541 6.30158 14.2197 7.10938 14.2188H10.5442L11.2792 15.6886C11.3635 15.8573 11.4932 15.9992 11.6536 16.0983C11.814 16.1975 11.9989 16.25 12.1875 16.25H22.3438C22.5324 16.25 22.7172 16.1975 22.8777 16.0983C23.0381 15.9992 23.1677 15.8573 23.2521 15.6886L23.987 14.2188H25.3906V12.1875H7.10938C5.76304 12.189 4.47227 12.7245 3.52027 13.6765C2.56826 14.6285 2.03276 15.9193 2.03125 17.2656V19.2969H4.0625V17.2656ZM40.625 62.9688V48.2272C40.6276 47.2932 40.4449 46.3679 40.0875 45.505C39.7302 44.6421 39.2052 43.8586 38.543 43.1999L32.5 37.1569V34.5312H30.4688V44.2669L27.9657 41.7638C27.2353 41.0405 26.2482 40.636 25.2203 40.6385C24.1924 40.6411 23.2073 41.0505 22.4805 41.7774C21.7537 42.5042 21.3442 43.4893 21.3417 44.5172C21.3391 45.5451 21.7437 46.5322 22.4669 47.2626L26.1866 50.9823L26.1155 51.1244C25.2442 52.8555 24.8148 54.7753 24.8655 56.7127C24.9162 58.65 25.4456 60.5447 26.4062 62.2279V62.9688H28.4375V61.9531C28.4374 61.7691 28.3874 61.5885 28.2928 61.4306C27.4429 60.0224 26.964 58.4216 26.9008 56.778C26.8377 55.1344 27.1924 53.5016 27.9318 52.0324L28.3302 51.2355C28.4255 51.0448 28.4584 50.829 28.4243 50.6185C28.3901 50.4081 28.2906 50.2138 28.1398 50.0631L23.9032 45.8263C23.555 45.478 23.3593 45.0057 23.3593 44.5132C23.3593 44.0207 23.555 43.5484 23.9032 43.2001C24.2515 42.8519 24.7238 42.6562 25.2163 42.6562C25.7088 42.6562 26.1811 42.8519 26.5294 43.2001L33.8131 50.4838L35.2494 49.0475L32.5 46.298V40.03L37.1064 44.6367C37.5794 45.1071 37.9545 45.6666 38.2098 46.2829C38.4651 46.8993 38.5956 47.5601 38.5938 48.2272V62.9688H40.625ZM8.125 32.6747V28.2628C7.69587 28.1115 7.30609 27.8659 6.9843 27.5442C6.66252 27.2225 6.41689 26.8328 6.26548 26.4037C6.11407 25.9746 6.06071 25.517 6.10933 25.0646C6.15795 24.6122 6.30731 24.1764 6.54644 23.7893C6.78557 23.4021 7.10839 23.0735 7.49119 22.8275C7.87399 22.5815 8.30704 22.4244 8.75852 22.3677C9.21001 22.311 9.66846 22.3562 10.1002 22.4999C10.5319 22.6436 10.926 22.8823 11.2534 23.1983L14.2429 21.7044C14.1886 21.2754 14.2262 20.8398 14.3533 20.4264C14.4803 20.0131 14.6939 19.6315 14.9799 19.3071C15.2658 18.9827 15.6175 18.7229 16.0116 18.5449C16.4057 18.367 16.8332 18.2749 17.2656 18.2749C17.6981 18.2749 18.1255 18.367 18.5196 18.5449C18.9137 18.7229 19.2654 18.9827 19.5514 19.3071C19.8373 19.6315 20.0509 20.0131 20.178 20.4264C20.305 20.8398 20.3427 21.2754 20.2884 21.7044L23.2777 23.1981C23.4551 23.026 23.6528 22.8762 23.8664 22.752L24.8836 24.5102C24.6896 24.6218 24.5379 24.7943 24.452 25.0009C24.3661 25.2076 24.3509 25.4368 24.4087 25.653C24.4666 25.8692 24.5942 26.0602 24.7717 26.1964C24.9493 26.3327 25.1668 26.4064 25.3906 26.4062V28.4375C24.7015 28.438 24.0328 28.2037 23.4947 27.7732L20.2395 29.8078C20.3368 30.2431 20.3368 30.6944 20.2395 31.1297L23.4947 33.1643C23.7589 32.9534 24.0564 32.7879 24.375 32.6747V30.4688H26.4062V32.6747C26.8354 32.826 27.2252 33.0716 27.5469 33.3933C27.8687 33.715 28.1144 34.1047 28.2658 34.5338C28.4172 34.9629 28.4705 35.4205 28.4219 35.8729C28.3733 36.3253 28.2239 36.7611 27.9848 37.1482C27.7457 37.5354 27.4229 37.864 27.0401 38.11C26.6573 38.356 26.2242 38.5131 25.7727 38.5698C25.3212 38.6265 24.8628 38.5813 24.4311 38.4376C23.9993 38.2939 23.6053 38.0552 23.2779 37.7392L20.2884 39.2331C20.3427 39.6621 20.305 40.0977 20.178 40.5111C20.0509 40.9244 19.8373 41.306 19.5514 41.6304C19.2654 41.9548 18.9137 42.2146 18.5196 42.3926C18.1255 42.5705 17.6981 42.6626 17.2656 42.6626C16.8332 42.6626 16.4057 42.5705 16.0116 42.3926C15.6175 42.2146 15.2658 41.9548 14.9799 41.6304C14.6939 41.306 14.4803 40.9244 14.3533 40.5111C14.2262 40.0977 14.1886 39.6621 14.2429 39.2331L11.2534 37.7392C10.9259 38.0549 10.5319 38.2932 10.1003 38.4367C9.66875 38.5802 9.21049 38.6252 8.75923 38.5684C8.30796 38.5116 7.87515 38.3545 7.49256 38.1085C7.10996 37.8626 6.78731 37.534 6.54829 37.1471C6.30927 36.7601 6.15994 36.3246 6.11128 35.8724C6.06262 35.4201 6.11585 34.9628 6.26707 34.5338C6.4183 34.1049 6.66367 33.7152 6.98517 33.3935C7.30667 33.0718 7.69615 32.8262 8.125 32.6747ZM24.375 35.5469C24.375 35.7477 24.4346 35.9441 24.5462 36.1111C24.6578 36.2781 24.8164 36.4083 25.002 36.4852C25.1875 36.5621 25.3918 36.5822 25.5888 36.543C25.7858 36.5038 25.9667 36.4071 26.1088 36.265C26.2508 36.123 26.3475 35.942 26.3867 35.745C26.4259 35.548 26.4058 35.3438 26.3289 35.1582C26.2521 34.9726 26.1219 34.814 25.9549 34.7024C25.7879 34.5908 25.5915 34.5312 25.3906 34.5312C25.1214 34.5316 24.8632 34.6387 24.6728 34.8291C24.4824 35.0195 24.3753 35.2776 24.375 35.5469ZM15.1529 37.417C15.466 37.1148 15.84 36.883 16.25 36.7372V33.3409C15.9314 33.2277 15.6339 33.0622 15.3697 32.8513L12.1145 34.886C12.191 35.2262 12.2075 35.5772 12.1634 35.9232L15.1529 37.417ZM18.2812 39.6094C18.2812 39.4085 18.2217 39.2121 18.1101 39.0451C17.9985 38.8781 17.8399 38.7479 17.6543 38.6711C17.4687 38.5942 17.2645 38.5741 17.0675 38.6133C16.8705 38.6525 16.6895 38.7492 16.5475 38.8912C16.4054 39.0333 16.3087 39.2142 16.2695 39.4112C16.2303 39.6082 16.2504 39.8125 16.3273 39.998C16.4042 40.1836 16.5344 40.3422 16.7014 40.4538C16.8684 40.5654 17.0648 40.625 17.2656 40.625C17.5349 40.6247 17.793 40.5176 17.9834 40.3272C18.1738 40.1368 18.2809 39.8786 18.2812 39.6094ZM17.2656 31.4844C17.4665 31.4844 17.6629 31.4248 17.8299 31.3132C17.9969 31.2016 18.1271 31.043 18.2039 30.8574C18.2808 30.6718 18.3009 30.4676 18.2617 30.2706C18.2225 30.0736 18.1258 29.8926 17.9838 29.7506C17.8417 29.6086 17.6608 29.5118 17.4638 29.4726C17.2668 29.4335 17.0625 29.4536 16.877 29.5304C16.6914 29.6073 16.5328 29.7375 16.4212 29.9045C16.3096 30.0715 16.25 30.2679 16.25 30.4688C16.2503 30.738 16.3574 30.9962 16.5478 31.1866C16.7382 31.377 16.9964 31.4841 17.2656 31.4844ZM19.1615 32.8513C18.8973 33.0622 18.5998 33.2277 18.2812 33.3409V36.7372C18.6912 36.883 19.0653 37.1148 19.3784 37.417L22.3679 35.9232C22.3237 35.5772 22.3403 35.2262 22.4167 34.886L19.1615 32.8513ZM19.3784 23.5202C19.0653 23.8225 18.6912 24.0544 18.2812 24.2003V27.5966C18.5998 27.7098 18.8973 27.8753 19.1615 28.0862L22.4167 26.0515C22.3402 25.7113 22.3237 25.3603 22.368 25.0143L19.3784 23.5202ZM16.25 21.3281C16.25 21.529 16.3096 21.7254 16.4212 21.8924C16.5328 22.0594 16.6914 22.1896 16.877 22.2664C17.0625 22.3433 17.2668 22.3634 17.4638 22.3242C17.6608 22.285 17.8417 22.1883 17.9838 22.0463C18.1258 21.9042 18.2225 21.7233 18.2617 21.5263C18.3009 21.3293 18.2808 21.125 18.2039 20.9395C18.1271 20.7539 17.9969 20.5953 17.8299 20.4837C17.6629 20.3721 17.4665 20.3125 17.2656 20.3125C16.9964 20.3128 16.7382 20.4199 16.5478 20.6103C16.3574 20.8007 16.2503 21.0589 16.25 21.3281ZM12.1875 25.3906C12.1873 25.6129 12.1629 25.8346 12.1145 26.0515L15.3697 28.0862C15.6339 27.8753 15.9314 27.7098 16.25 27.5966V24.2003C15.84 24.0545 15.466 23.8227 15.1529 23.5205L12.1634 25.0143C12.1792 25.1391 12.1872 25.2648 12.1875 25.3906ZM11.0365 27.7732C10.7723 27.9841 10.4748 28.1496 10.1562 28.2628V32.6747C10.4748 32.7879 10.7723 32.9534 11.0365 33.1643L14.2917 31.1297C14.1944 30.6944 14.1944 30.2431 14.2917 29.8078L11.0365 27.7732ZM8.125 25.3906C8.125 25.5915 8.18457 25.7879 8.29616 25.9549C8.40776 26.1219 8.56638 26.2521 8.75196 26.3289C8.93754 26.4058 9.14175 26.4259 9.33876 26.3867C9.53578 26.3475 9.71674 26.2508 9.85878 26.1088C10.0008 25.9667 10.0975 25.7858 10.1367 25.5888C10.1759 25.3918 10.1558 25.1875 10.0789 25.002C10.0021 24.8164 9.87189 24.6578 9.70488 24.5462C9.53786 24.4346 9.3415 24.375 9.14062 24.375C8.87136 24.3753 8.6132 24.4824 8.4228 24.6728C8.2324 24.8632 8.1253 25.1214 8.125 25.3906ZM8.125 35.5469C8.125 35.7477 8.18457 35.9441 8.29616 36.1111C8.40776 36.2781 8.56638 36.4083 8.75196 36.4852C8.93754 36.5621 9.14175 36.5822 9.33876 36.543C9.53578 36.5038 9.71674 36.4071 9.85878 36.265C10.0008 36.123 10.0975 35.942 10.1367 35.745C10.1759 35.548 10.1558 35.3438 10.0789 35.1582C10.0021 34.9726 9.87189 34.814 9.70488 34.7024C9.53786 34.5908 9.3415 34.5312 9.14062 34.5312C8.87136 34.5316 8.6132 34.6387 8.4228 34.8291C8.2324 35.0195 8.1253 35.2776 8.125 35.5469ZM22.3438 56.875H12.1875V58.9062H22.3438V56.875ZM7.10938 44.6875V46.7188H9.14062V44.6875H7.10938ZM11.1719 44.6875V46.7188H19.2969V44.6875H11.1719ZM7.10938 50.7812H21.3281V48.75H7.10938V50.7812ZM13.2031 52.8125H7.10938V54.8438H13.2031V52.8125ZM22.3438 52.8125H15.2344V54.8438H22.3438V52.8125ZM62.9688 20.3125V7.10938C62.9672 5.76304 62.4317 4.47227 61.4797 3.52027C60.5277 2.56826 59.237 2.03276 57.8906 2.03125H32.5C31.1537 2.03276 29.8629 2.56826 28.9109 3.52027C27.9589 4.47227 27.4234 5.76304 27.4219 7.10938V27.4219C27.4234 28.7682 27.9589 30.059 28.9109 31.011C29.8629 31.963 31.1537 32.4985 32.5 32.5H35.3236L34.5509 36.3633C34.5129 36.5534 34.5301 36.7505 34.6005 36.9311C34.6708 37.1118 34.7914 37.2685 34.948 37.3828C35.1046 37.4971 35.2907 37.5642 35.4842 37.5762C35.6777 37.5881 35.8706 37.5444 36.0401 37.4503L44.9507 32.5H57.8906C59.237 32.4985 60.5277 31.963 61.4797 31.011C62.4317 30.059 62.9672 28.7682 62.9688 27.4219V22.3438H60.9375V27.4219C60.9366 28.2297 60.6152 29.0041 60.0441 29.5753C59.4729 30.1465 58.6984 30.4678 57.8906 30.4688H44.6875C44.5149 30.4688 44.3452 30.5128 44.1943 30.5966L36.9734 34.6083L37.5584 31.6838C37.588 31.5364 37.5844 31.3844 37.548 31.2385C37.5116 31.0927 37.4434 30.9568 37.3481 30.8405C37.2528 30.7243 37.1329 30.6307 36.9971 30.5664C36.8612 30.5021 36.7128 30.4687 36.5625 30.4688H32.5C31.6922 30.4678 30.9178 30.1465 30.3466 29.5753C29.7754 29.0041 29.4541 28.2297 29.4531 27.4219V7.10938C29.4541 6.30158 29.7754 5.52714 30.3466 4.95595C30.9178 4.38475 31.6922 4.06344 32.5 4.0625H57.8906C58.6984 4.06344 59.4729 4.38475 60.0441 4.95595C60.6152 5.52714 60.9366 6.30158 60.9375 7.10938V20.3125H62.9688ZM58.9062 22.3438H57.8906V7.10938H55.8594V22.3438H53.8281V13.2031H51.7969V22.3438H49.7656V14.2188H47.7344V22.3438H45.7031V17.2656H43.6719V22.3438H41.6406V16.25H39.6094V22.3438H37.5781V19.2969H35.5469V22.3438H33.5156V7.10938H31.4844V23.3594C31.4844 23.6287 31.5914 23.8871 31.7818 24.0775C31.9723 24.268 32.2306 24.375 32.5 24.375H58.9062V22.3438ZM42.3588 9.43808C42.1928 9.27203 41.9744 9.16864 41.7407 9.14549C41.507 9.12234 41.2726 9.18088 41.0772 9.31112L34.9835 13.3736L36.1103 15.0636L41.5111 11.4631L43.9693 13.9213C44.1393 14.0913 44.3641 14.1954 44.6037 14.2153C44.8432 14.2351 45.0821 14.1693 45.2777 14.0296L50.0773 10.6019L50.3396 10.9639C50.4338 11.0939 50.5574 11.1997 50.7004 11.2726C50.8434 11.3455 51.0016 11.3835 51.1621 11.3835C51.1875 11.3835 51.2129 11.3825 51.2383 11.3807C51.4113 11.3676 51.5781 11.3104 51.7228 11.2145C51.8674 11.1186 51.9851 10.9872 52.0645 10.8329L53.5033 8.03994C53.5871 7.87718 53.6253 7.69479 53.6139 7.51208C53.6026 7.32936 53.5421 7.15311 53.4388 7.00197C53.3355 6.85083 53.1933 6.73041 53.0271 6.65347C52.861 6.57653 52.6772 6.54592 52.4951 6.56487L49.279 6.90333C49.1019 6.92198 48.9327 6.98689 48.7886 7.09156C48.6445 7.19622 48.5304 7.33695 48.4578 7.49962C48.3853 7.6623 48.3568 7.8412 48.3752 8.01837C48.3936 8.19555 48.4583 8.36476 48.5627 8.50903L48.8865 8.95629L44.7978 11.8762L42.3588 9.43808ZM31.4844 28.4375H33.5156V26.4062H31.4844V28.4375ZM37.5781 28.4375V26.4062H35.5469V28.4375H37.5781ZM41.6406 28.4375V26.4062H39.6094V28.4375H41.6406ZM45.7031 28.4375V26.4062H43.6719V28.4375H45.7031ZM49.7656 28.4375V26.4062H47.7344V28.4375H49.7656ZM53.8281 28.4375V26.4062H51.7969V28.4375H53.8281ZM57.8906 28.4375V26.4062H55.8594V28.4375H57.8906Z" fill="url(#paint0_linear)" fill-opacity="0.52" style="mix-blend-mode:color"/>
</g>
<defs>
<linearGradient id="paint0_linear" x1="62.9688" y1="14.5657" x2="-5.35938" y2="35.672" gradientUnits="userSpaceOnUse">
<stop stop-color="#F92020" stop-opacity="0.64"/>
<stop offset="1" stop-color="#2B66FF" stop-opacity="0.57"/>
</linearGradient>
</defs>
</svg>
