<svg width="64" height="64" viewBox="0 0 64 64" fill="none" xmlns="http://www.w3.org/2000/svg">
<g clip-path="url(#clip0)">
<g opacity="0.87">
<path d="M16.8072 15.9327C15.7901 15.9327 14.9625 16.7603 14.9625 17.7775V38.2825C14.9625 39.2996 15.7901 40.1272 16.8072 40.1272H47.1927C48.2099 40.1272 49.0374 39.2996 49.0374 38.2825V17.7773C49.0374 16.7602 48.2099 15.9326 47.1927 15.9326C46.132 15.9327 18.0163 15.9327 16.8072 15.9327ZM44.7442 26.7105H47.1625V29.3491H44.7442V26.7105ZM47.1623 24.8354H44.7441V22.1967H47.1623V24.8354ZM44.7442 31.2244H47.1625V33.8631H44.7442V31.2244ZM47.1623 20.3216H44.7441V17.8078H47.1623V20.3216ZM16.8376 26.7105H19.2559V29.3491H16.8376V26.7105ZM19.2559 24.8354H16.8376V22.1967H19.2559V24.8354ZM16.8376 31.2244H19.2559V33.8631H16.8376V31.2244ZM19.2559 17.8078V20.3216H16.8376V17.8078H19.2559ZM16.8376 35.7382H19.2559V38.252H16.8376V35.7382ZM21.131 17.8078H42.869V38.2521H21.131V17.8078ZM44.7442 38.252V35.7382H47.1625V38.252H44.7442Z" fill="#272727"/>
<path d="M16.8072 15.9327C15.7901 15.9327 14.9625 16.7603 14.9625 17.7775V38.2825C14.9625 39.2996 15.7901 40.1272 16.8072 40.1272H47.1927C48.2099 40.1272 49.0374 39.2996 49.0374 38.2825V17.7773C49.0374 16.7602 48.2099 15.9326 47.1927 15.9326C46.132 15.9327 18.0163 15.9327 16.8072 15.9327ZM44.7442 26.7105H47.1625V29.3491H44.7442V26.7105ZM47.1623 24.8354H44.7441V22.1967H47.1623V24.8354ZM44.7442 31.2244H47.1625V33.8631H44.7442V31.2244ZM47.1623 20.3216H44.7441V17.8078H47.1623V20.3216ZM16.8376 26.7105H19.2559V29.3491H16.8376V26.7105ZM19.2559 24.8354H16.8376V22.1967H19.2559V24.8354ZM16.8376 31.2244H19.2559V33.8631H16.8376V31.2244ZM19.2559 17.8078V20.3216H16.8376V17.8078H19.2559ZM16.8376 35.7382H19.2559V38.252H16.8376V35.7382ZM21.131 17.8078H42.869V38.2521H21.131V17.8078ZM44.7442 38.252V35.7382H47.1625V38.252H44.7442Z" fill="url(#paint0_linear)" fill-opacity="0.52" style="mix-blend-mode:color"/>
<path d="M35.6385 26.5051L30.2382 23.1818C29.0477 22.4493 27.5093 23.3079 27.5093 24.7066V31.3533C27.5093 32.7616 29.0572 33.605 30.2382 32.8781L35.6385 29.5548C36.7761 28.8552 36.7739 27.2034 35.6385 26.5051ZM29.3842 31.2018V24.8581L34.5387 28.03L29.3842 31.2018Z" fill="#272727"/>
<path d="M35.6385 26.5051L30.2382 23.1818C29.0477 22.4493 27.5093 23.3079 27.5093 24.7066V31.3533C27.5093 32.7616 29.0572 33.605 30.2382 32.8781L35.6385 29.5548C36.7761 28.8552 36.7739 27.2034 35.6385 26.5051ZM29.3842 31.2018V24.8581L34.5387 28.03L29.3842 31.2018Z" fill="url(#paint1_linear)" fill-opacity="0.52" style="mix-blend-mode:color"/>
<path d="M64 8.92789C64 6.6314 62.1318 4.76318 59.8354 4.76318H34.8392C34.3213 4.76318 33.9017 5.18295 33.9017 5.70073C33.9017 6.2185 34.3213 6.63828 34.8392 6.63828H59.8354C61.098 6.63828 62.1249 7.66545 62.1249 8.92789V47.1321C62.1249 48.3947 61.0979 49.4217 59.8354 49.4217C58.9726 49.4217 5.03375 49.4217 4.1647 49.4217C2.90214 49.4217 1.87522 48.3946 1.87522 47.1321V8.92789C1.87522 7.66533 2.90227 6.63828 4.1647 6.63828H30.464C30.9819 6.63828 31.4015 6.2185 31.4015 5.70073C31.4015 5.18295 30.9819 4.76318 30.464 4.76318H4.16458C1.86822 4.76318 0 6.63152 0 8.92789V47.1321C0 49.4286 1.86822 51.2968 4.16458 51.2968H14.7971V53.3916H11.4891C10.445 53.3916 9.59572 54.241 9.59572 55.2849V57.3429C9.59572 58.3871 10.4451 59.2363 11.4891 59.2363H52.5108C53.5549 59.2363 54.4042 58.3869 54.4042 57.3429V55.2849C54.4042 54.2409 53.5547 53.3916 52.5108 53.3916H49.2028V51.2968H59.8353C62.1317 51.2968 63.9999 49.4286 63.9999 47.1321V8.92789H64ZM52.5292 55.2849V57.3429C52.5292 57.353 52.5211 57.3613 52.5109 57.3613H11.4891C11.4789 57.3613 11.4708 57.353 11.4708 57.3429V55.2849C11.4708 55.2748 11.4789 55.2667 11.4891 55.2667H52.5108C52.5209 55.2667 52.5292 55.2748 52.5292 55.2849ZM47.3278 53.3916H16.6722V51.2968H47.3277V53.3916H47.3278Z" fill="#272727"/>
<path d="M64 8.92789C64 6.6314 62.1318 4.76318 59.8354 4.76318H34.8392C34.3213 4.76318 33.9017 5.18295 33.9017 5.70073C33.9017 6.2185 34.3213 6.63828 34.8392 6.63828H59.8354C61.098 6.63828 62.1249 7.66545 62.1249 8.92789V47.1321C62.1249 48.3947 61.0979 49.4217 59.8354 49.4217C58.9726 49.4217 5.03375 49.4217 4.1647 49.4217C2.90214 49.4217 1.87522 48.3946 1.87522 47.1321V8.92789C1.87522 7.66533 2.90227 6.63828 4.1647 6.63828H30.464C30.9819 6.63828 31.4015 6.2185 31.4015 5.70073C31.4015 5.18295 30.9819 4.76318 30.464 4.76318H4.16458C1.86822 4.76318 0 6.63152 0 8.92789V47.1321C0 49.4286 1.86822 51.2968 4.16458 51.2968H14.7971V53.3916H11.4891C10.445 53.3916 9.59572 54.241 9.59572 55.2849V57.3429C9.59572 58.3871 10.4451 59.2363 11.4891 59.2363H52.5108C53.5549 59.2363 54.4042 58.3869 54.4042 57.3429V55.2849C54.4042 54.2409 53.5547 53.3916 52.5108 53.3916H49.2028V51.2968H59.8353C62.1317 51.2968 63.9999 49.4286 63.9999 47.1321V8.92789H64ZM52.5292 55.2849V57.3429C52.5292 57.353 52.5211 57.3613 52.5109 57.3613H11.4891C11.4789 57.3613 11.4708 57.353 11.4708 57.3429V55.2849C11.4708 55.2748 11.4789 55.2667 11.4891 55.2667H52.5108C52.5209 55.2667 52.5292 55.2748 52.5292 55.2849ZM47.3278 53.3916H16.6722V51.2968H47.3277V53.3916H47.3278Z" fill="url(#paint2_linear)" fill-opacity="0.52" style="mix-blend-mode:color"/>
<path d="M59.0927 26.7799C59.6106 26.7799 60.0302 26.3603 60.0302 25.8424V10.4576C60.0302 9.5067 59.2565 8.73291 58.3055 8.73291H5.69456C4.74364 8.73291 3.96985 9.50657 3.96985 10.4576V45.6022C3.96985 46.5531 4.74351 47.3269 5.69456 47.3269H58.3055C59.2564 47.3269 60.0302 46.5533 60.0302 45.6022V30.2176C60.0302 29.6997 59.6106 29.28 59.0927 29.28C58.5748 29.28 58.1551 29.6997 58.1551 30.2176V45.4518H5.84494V10.608H58.1551V25.8424C58.1551 26.3603 58.5748 26.7799 59.0927 26.7799Z" fill="#272727"/>
<path d="M59.0927 26.7799C59.6106 26.7799 60.0302 26.3603 60.0302 25.8424V10.4576C60.0302 9.5067 59.2565 8.73291 58.3055 8.73291H5.69456C4.74364 8.73291 3.96985 9.50657 3.96985 10.4576V45.6022C3.96985 46.5531 4.74351 47.3269 5.69456 47.3269H58.3055C59.2564 47.3269 60.0302 46.5533 60.0302 45.6022V30.2176C60.0302 29.6997 59.6106 29.28 59.0927 29.28C58.5748 29.28 58.1551 29.6997 58.1551 30.2176V45.4518H5.84494V10.608H58.1551V25.8424C58.1551 26.3603 58.5748 26.7799 59.0927 26.7799Z" fill="url(#paint3_linear)" fill-opacity="0.52" style="mix-blend-mode:color"/>
</g>
</g>
<defs>
<linearGradient id="paint0_linear" x1="49.0374" y1="20.9093" x2="13.8448" y2="36.2195" gradientUnits="userSpaceOnUse">
<stop stop-color="#F92020" stop-opacity="0.64"/>
<stop offset="1" stop-color="#2B66FF" stop-opacity="0.57"/>
</linearGradient>
<linearGradient id="paint1_linear" x1="36.4909" y1="25.0186" x2="26.2148" y2="27.8054" gradientUnits="userSpaceOnUse">
<stop stop-color="#F92020" stop-opacity="0.64"/>
<stop offset="1" stop-color="#2B66FF" stop-opacity="0.57"/>
</linearGradient>
<linearGradient id="paint2_linear" x1="64" y1="15.9679" x2="-5.46067" y2="41.1766" gradientUnits="userSpaceOnUse">
<stop stop-color="#F92020" stop-opacity="0.64"/>
<stop offset="1" stop-color="#2B66FF" stop-opacity="0.57"/>
</linearGradient>
<linearGradient id="paint3_linear" x1="60.0302" y1="16.6714" x2="2.71239" y2="42.3895" gradientUnits="userSpaceOnUse">
<stop stop-color="#F92020" stop-opacity="0.64"/>
<stop offset="1" stop-color="#2B66FF" stop-opacity="0.57"/>
</linearGradient>
<clipPath id="clip0">
<rect width="64" height="64" fill="white"/>
</clipPath>
</defs>
</svg>
